<svg width="24" height="24" viewBox="0 0 24 24" fill="none" xmlns="http://www.w3.org/2000/svg">
<path fill-rule="evenodd" clip-rule="evenodd" d="M7.016 1.64598C7.06245 1.59942 7.11762 1.56247 7.17837 1.53727C7.23911 1.51206 7.30423 1.49908 7.37 1.49908C7.43577 1.49908 7.50089 1.51206 7.56163 1.53727C7.62238 1.56247 7.67755 1.59942 7.724 1.64598L8.829 2.75198C9.68581 2.25773 10.6579 1.99833 11.647 1.99998H12.353C13.3429 1.99824 14.3157 2.258 15.173 2.75298L16.28 1.64598C16.3739 1.55222 16.5012 1.49961 16.6339 1.4997C16.7665 1.49979 16.8937 1.55259 16.9875 1.64648C17.0813 1.74036 17.1339 1.86765 17.1338 2.00033C17.1337 2.13301 17.0809 2.26022 16.987 2.35398L16.003 3.33798C16.6296 3.86768 17.1329 4.52782 17.4778 5.27227C17.8228 6.01671 18.001 6.8275 18 7.64798C17.9997 7.74143 17.9624 7.83096 17.8963 7.89694C17.8301 7.96293 17.7404 7.99998 17.647 7.99998H6.353C6.25938 7.99998 6.16959 7.96279 6.10339 7.89659C6.03719 7.83039 6 7.7406 6 7.64698C6 5.91898 6.776 4.37198 8 3.33698L7.016 2.35398C6.96944 2.30753 6.93249 2.25236 6.90729 2.19161C6.88208 2.13087 6.86911 2.06575 6.86911 1.99998C6.86911 1.93421 6.88208 1.86909 6.90729 1.80834C6.93249 1.7476 6.96944 1.69242 7.016 1.64598ZM10.5 5.24998C10.5 5.44889 10.421 5.63966 10.2803 5.78031C10.1397 5.92096 9.94891 5.99998 9.75 5.99998C9.55109 5.99998 9.36032 5.92096 9.21967 5.78031C9.07902 5.63966 9 5.44889 9 5.24998C9 5.05107 9.07902 4.8603 9.21967 4.71965C9.36032 4.579 9.55109 4.49998 9.75 4.49998C9.94891 4.49998 10.1397 4.579 10.2803 4.71965C10.421 4.8603 10.5 5.05107 10.5 5.24998ZM14.224 5.99998C14.4229 5.99998 14.6137 5.92096 14.7543 5.78031C14.895 5.63966 14.974 5.44889 14.974 5.24998C14.974 5.05107 14.895 4.8603 14.7543 4.71965C14.6137 4.579 14.4229 4.49998 14.224 4.49998C14.0251 4.49998 13.8343 4.579 13.6937 4.71965C13.553 4.8603 13.474 5.05107 13.474 5.24998C13.474 5.44889 13.553 5.63966 13.6937 5.78031C13.8343 5.92096 14.0251 5.99998 14.224 5.99998Z" fill="black"/>
<path d="M4 8.94702C3.73478 8.94702 3.48043 9.05238 3.29289 9.23991C3.10536 9.42745 3 9.6818 3 9.94702V15.947C3 16.2122 3.10536 16.4666 3.29289 16.6541C3.48043 16.8417 3.73478 16.947 4 16.947C4.26522 16.947 4.51957 16.8417 4.70711 16.6541C4.89464 16.4666 5 16.2122 5 15.947V9.94702C5 9.6818 4.89464 9.42745 4.70711 9.23991C4.51957 9.05238 4.26522 8.94702 4 8.94702ZM7 8.94702C6.73478 8.94702 6.48043 9.05238 6.29289 9.23991C6.10536 9.42745 6 9.6818 6 9.94702V18.947C6 19.2122 6.10536 19.4666 6.29289 19.6541C6.48043 19.8417 6.73478 19.947 7 19.947H17C17.2652 19.947 17.5196 19.8417 17.7071 19.6541C17.8946 19.4666 18 19.2122 18 18.947V9.94702C18 9.6818 17.8946 9.42745 17.7071 9.23991C17.5196 9.05238 17.2652 8.94702 17 8.94702H7ZM19.21 9.94702C19.21 9.6818 19.3154 9.42745 19.5029 9.23991C19.6904 9.05238 19.9448 8.94702 20.21 8.94702C20.4752 8.94702 20.7296 9.05238 20.9171 9.23991C21.1046 9.42745 21.21 9.6818 21.21 9.94702V15.947C21.21 16.2122 21.1046 16.4666 20.9171 16.6541C20.7296 16.8417 20.4752 16.947 20.21 16.947C19.9448 16.947 19.6904 16.8417 19.5029 16.6541C19.3154 16.4666 19.21 16.2122 19.21 15.947V9.94702ZM7.793 21C7.75444 21 7.71626 21.0076 7.68064 21.0224C7.64503 21.0372 7.61268 21.0589 7.58546 21.0862C7.55824 21.1135 7.53668 21.1459 7.52202 21.1816C7.50735 21.2173 7.49987 21.2555 7.5 21.294V21.5C7.5 21.9642 7.68437 22.4093 8.01256 22.7375C8.34075 23.0656 8.78587 23.25 9.25 23.25C9.71413 23.25 10.1592 23.0656 10.4874 22.7375C10.8156 22.4093 11 21.9642 11 21.5V21.294C11.0001 21.2555 10.9927 21.2173 10.978 21.1816C10.9633 21.1459 10.9418 21.1135 10.9145 21.0862C10.8873 21.0589 10.855 21.0372 10.8194 21.0224C10.7837 21.0076 10.7456 21 10.707 21H7.793ZM13 21.294C13 21.131 13.131 21 13.293 21H16.206C16.369 21 16.5 21.131 16.5 21.294V21.5C16.5 21.9642 16.3156 22.4093 15.9874 22.7375C15.6592 23.0656 15.2141 23.25 14.75 23.25C14.2859 23.25 13.8408 23.0656 13.5126 22.7375C13.1844 22.4093 13 21.9642 13 21.5V21.294Z" fill="black"/>
</svg>
