<svg width="24" height="24" viewBox="0 0 24 24" fill="none" xmlns="http://www.w3.org/2000/svg">
<g clip-path="url(#clip0_725_335)">
<path d="M7.508 0C7.221 0 6.935 0 6.648 0.002C6.407 0.004 6.165 0.005 5.924 0.012C5.792 0.015 5.661 0.021 5.529 0.027C5.13309 0.0423982 4.73859 0.0834846 4.348 0.15C3.82745 0.242046 3.32291 0.408765 2.85 0.645C1.90069 1.1279 1.12876 1.89913 0.645 2.848C0.4 3.328 0.245 3.82 0.15 4.348C0.057 4.868 0.028 5.398 0.014 5.924C0.00751781 6.16529 0.00351759 6.40663 0.002 6.648C0 6.935 0 7.221 0 7.508V16.492C0 16.779 0 17.067 0.002 17.354C0.004 17.594 0.007 17.835 0.014 18.076C0.028 18.602 0.057 19.133 0.15 19.652C0.245 20.18 0.4 20.672 0.645 21.152C1.1282 22.1013 1.90028 22.8727 2.85 23.355C3.33 23.599 3.82 23.755 4.348 23.85C4.868 23.943 5.398 23.974 5.924 23.988C6.165 23.995 6.407 23.997 6.648 23.998C6.935 24 7.221 24 7.508 24H16.492C16.779 24 17.065 24 17.352 23.998C17.593 23.997 17.835 23.995 18.076 23.988C18.6047 23.9817 19.1322 23.9356 19.654 23.85C20.1752 23.7603 20.68 23.5935 21.152 23.355C22.1008 22.872 22.872 22.1008 23.355 21.152C23.6 20.672 23.755 20.18 23.85 19.652C23.943 19.132 23.974 18.602 23.988 18.076C23.995 17.835 23.997 17.595 23.998 17.354C24 17.067 24 16.779 24 16.492V7.508C24 7.221 24 6.935 23.998 6.648C23.9973 6.40664 23.9939 6.16529 23.988 5.924C23.9817 5.39594 23.9356 4.86912 23.85 4.348C23.7604 3.82618 23.5936 3.32063 23.355 2.848C22.8718 1.89939 22.1006 1.12819 21.152 0.645C20.68 0.406466 20.1752 0.239632 19.654 0.15C19.1322 0.0643065 18.6047 0.0181751 18.076 0.012C17.8354 0.00618273 17.5947 0.00284922 17.354 0.002C17.067 0 16.779 0 16.492 0H7.508ZM13.543 3.41C17.657 5.88 20.088 10.572 19.092 14.541C19.068 14.634 19.042 14.722 19.016 14.813L19.018 14.814C21.08 17.352 20.518 20.072 20.254 19.559C19.182 17.473 17.188 17.991 16.166 18.516C16.0736 18.5709 15.9799 18.6236 15.885 18.674L15.865 18.686L15.863 18.688C13.748 19.811 10.906 19.893 8.051 18.666C5.72634 17.6587 3.76039 15.9723 2.411 13.828C3.06 14.308 3.761 14.73 4.508 15.08C7.527 16.494 10.559 16.391 12.705 15.078C9.651 12.73 7.101 9.67 5.146 7.191C4.77436 6.75742 4.43827 6.29458 4.141 5.807C6.481 7.949 10.179 10.637 11.506 11.383C8.69 8.408 6.208 4.743 6.324 4.86C10.76 9.33 14.852 11.856 14.852 11.856C15.006 11.941 15.122 12.01 15.212 12.069C15.297 11.854 15.372 11.632 15.436 11.401C16.144 8.813 15.346 5.853 13.543 3.409V3.41Z" fill="black"/>
</g>
<defs>
<clipPath id="clip0_725_335">
<rect width="24" height="24" fill="white"/>
</clipPath>
</defs>
</svg>
