<svg width="551" height="480" viewBox="0 0 551 480" fill="none" xmlns="http://www.w3.org/2000/svg">
<g clip-path="url(#clip0_714_372)">
<path opacity="0.5" d="M496.803 249.8C496.875 309.195 473.92 366.304 432.765 409.124C430.284 411.722 427.736 414.258 425.121 416.73C421.137 420.521 417.019 424.164 412.767 427.661C372.992 460.436 323.337 478.853 271.813 479.942C270.097 479.981 268.373 480 266.644 480C225.552 480 173.869 458.048 126.966 427.661C123.085 425.147 119.24 422.575 115.428 419.944C113.647 418.726 111.874 417.491 110.11 416.238C92.0199 403.463 74.8492 389.433 58.7241 374.253C48.1664 364.343 38.266 353.755 29.0861 342.556C-6.95245 298.096 -14.9013 258.035 36.4777 249.8C42.5608 248.828 48.4647 247.789 54.1893 246.683C62.4815 245.089 70.4173 243.368 77.9969 241.519C88.2066 239.038 97.7987 236.347 106.773 233.446C109.792 232.474 112.742 231.483 115.623 230.472C158.211 215.512 186.715 196.003 206.117 174.835C209.408 171.252 212.442 167.626 215.219 163.956C219.468 158.371 223.327 152.5 226.77 146.385C231.521 137.888 235.512 128.988 238.696 119.788L238.871 119.282C254.309 74.744 249.612 33.4325 266.644 19.6058C339.446 -39.5041 430.083 44.674 472.626 143.942C474.77 148.944 476.787 153.976 478.677 159.039C479.525 161.3 480.344 163.566 481.132 165.835C483.205 171.751 485.086 177.682 486.775 183.627C487.422 185.895 488.04 188.161 488.627 190.424C489.256 192.867 489.858 195.303 490.415 197.739C494.555 215.576 496.803 233.168 496.803 249.8Z" fill="#414360"/>
<path d="M271.813 479.942C270.097 479.981 268.373 480 266.644 480C225.552 480 173.869 458.048 126.966 427.661C123.086 425.147 119.24 422.575 115.428 419.944L118.771 399.599L219.968 386.161L270.757 425.004L271.813 479.942Z" fill="#C1340A"/>
<path d="M276.685 116.658H262.264C261.818 116.658 261.389 116.836 261.074 117.152C260.758 117.468 260.58 117.896 260.58 118.343V132.772C260.58 132.993 260.624 133.211 260.709 133.415C260.794 133.619 260.918 133.804 261.074 133.96C261.231 134.116 261.416 134.24 261.62 134.324C261.825 134.408 262.044 134.451 262.264 134.45H276.685C277.131 134.45 277.558 134.274 277.874 133.959C278.19 133.645 278.368 133.218 278.369 132.772V118.343C278.368 117.896 278.19 117.469 277.874 117.153C277.559 116.837 277.131 116.659 276.685 116.658Z" fill="#C2C3E6"/>
<path d="M276.685 141.247H262.264C261.818 141.247 261.389 141.425 261.074 141.74C260.758 142.056 260.58 142.485 260.58 142.931V157.361C260.58 157.581 260.624 157.8 260.709 158.004C260.794 158.208 260.918 158.393 261.074 158.549C261.231 158.705 261.416 158.828 261.62 158.912C261.825 158.996 262.044 159.039 262.264 159.039H276.685C277.131 159.039 277.558 158.862 277.874 158.548C278.19 158.233 278.368 157.806 278.369 157.361V142.931C278.368 142.485 278.19 142.057 277.875 141.742C277.559 141.426 277.131 141.248 276.685 141.247Z" fill="#7A7B9B"/>
<path d="M276.685 165.835H262.264C261.818 165.836 261.389 166.013 261.074 166.329C260.758 166.645 260.58 167.073 260.58 167.52V181.943C260.58 182.164 260.623 182.383 260.707 182.588C260.792 182.793 260.916 182.978 261.072 183.135C261.229 183.291 261.415 183.416 261.619 183.5C261.824 183.585 262.043 183.628 262.264 183.627H276.685C277.132 183.627 277.56 183.45 277.876 183.134C278.192 182.818 278.369 182.39 278.369 181.943V167.52C278.368 167.074 278.19 166.646 277.875 166.33C277.559 166.015 277.131 165.837 276.685 165.835Z" fill="#7A7B9B"/>
<path d="M278.343 191.811C278.271 191.423 278.066 191.072 277.764 190.819C277.461 190.566 277.079 190.426 276.685 190.424H262.264C261.818 190.424 261.389 190.602 261.074 190.918C260.758 191.234 260.58 191.662 260.58 192.109V206.531C260.58 206.753 260.623 206.972 260.707 207.177C260.792 207.381 260.916 207.567 261.072 207.724C261.229 207.88 261.415 208.004 261.619 208.089C261.824 208.173 262.043 208.216 262.264 208.216H276.685C277.132 208.216 277.56 208.038 277.876 207.722C278.192 207.407 278.369 206.978 278.369 206.531V192.109C278.371 192.009 278.362 191.909 278.343 191.811Z" fill="#7A7B9B"/>
<path d="M277.339 215.142C277.132 215.056 276.909 215.012 276.685 215.013H262.264C262.043 215.012 261.824 215.056 261.619 215.14C261.415 215.225 261.229 215.349 261.072 215.505C260.916 215.662 260.792 215.848 260.707 216.052C260.623 216.257 260.58 216.476 260.58 216.697V231.12C260.579 231.342 260.622 231.561 260.706 231.766C260.791 231.971 260.915 232.157 261.071 232.313C261.228 232.47 261.414 232.594 261.619 232.678C261.823 232.763 262.043 232.806 262.264 232.805H276.685C277.132 232.804 277.56 232.627 277.876 232.311C278.192 231.995 278.369 231.567 278.369 231.12V216.697C278.369 216.366 278.27 216.042 278.087 215.765C277.904 215.489 277.644 215.272 277.339 215.142Z" fill="#7A7B9B"/>
<path d="M306.977 116.658H292.556C292.11 116.658 291.681 116.836 291.366 117.152C291.05 117.468 290.872 117.896 290.872 118.343V132.772C290.872 132.993 290.916 133.211 291.001 133.415C291.086 133.619 291.21 133.804 291.366 133.96C291.523 134.116 291.708 134.24 291.913 134.324C292.117 134.408 292.336 134.451 292.556 134.45H306.977C307.423 134.45 307.85 134.274 308.166 133.959C308.482 133.645 308.66 133.218 308.661 132.772V118.343C308.66 117.896 308.482 117.469 308.167 117.153C307.851 116.837 307.423 116.659 306.977 116.658Z" fill="#7A7B9B"/>
<path d="M306.977 141.247H292.556C292.11 141.247 291.681 141.425 291.366 141.74C291.05 142.056 290.872 142.485 290.872 142.931V157.361C290.872 157.581 290.916 157.8 291.001 158.004C291.086 158.208 291.21 158.393 291.366 158.549C291.523 158.705 291.708 158.828 291.913 158.912C292.117 158.996 292.336 159.039 292.556 159.039H306.977C307.423 159.039 307.85 158.862 308.166 158.548C308.482 158.233 308.66 157.806 308.661 157.361V142.931C308.66 142.485 308.482 142.057 308.167 141.742C307.851 141.426 307.423 141.248 306.977 141.247Z" fill="#FBFAF8"/>
<path d="M306.977 165.835H292.556C292.11 165.836 291.681 166.013 291.366 166.329C291.05 166.645 290.872 167.073 290.872 167.52V181.943C290.872 182.164 290.915 182.383 290.999 182.588C291.084 182.793 291.208 182.978 291.364 183.135C291.521 183.291 291.707 183.416 291.911 183.5C292.116 183.585 292.335 183.628 292.556 183.627H306.977C307.424 183.627 307.852 183.45 308.168 183.134C308.484 182.818 308.661 182.39 308.661 181.943V167.52C308.66 167.074 308.482 166.646 308.167 166.33C307.851 166.015 307.423 165.837 306.977 165.835Z" fill="#FBFAF8"/>
<path d="M306.977 190.424H292.556C292.203 190.424 291.859 190.536 291.573 190.743C291.287 190.95 291.073 191.242 290.963 191.577C290.903 191.748 290.872 191.928 290.872 192.109V206.531C290.872 206.753 290.915 206.972 290.999 207.177C291.084 207.381 291.208 207.567 291.364 207.724C291.521 207.88 291.707 208.004 291.911 208.089C292.116 208.173 292.335 208.216 292.556 208.216H306.977C307.424 208.216 307.852 208.038 308.168 207.722C308.484 207.407 308.661 206.978 308.661 206.531V192.109C308.66 191.662 308.482 191.235 308.166 190.919C307.851 190.603 307.423 190.425 306.977 190.424Z" fill="#FBFAF8"/>
<path d="M306.977 215.013H292.556C292.335 215.012 292.116 215.056 291.911 215.14C291.707 215.225 291.521 215.349 291.364 215.505C291.208 215.662 291.084 215.848 290.999 216.052C290.915 216.257 290.872 216.476 290.872 216.697V231.12C290.872 231.341 290.915 231.561 290.999 231.765C291.084 231.97 291.208 232.156 291.364 232.312C291.521 232.469 291.707 232.593 291.911 232.677C292.116 232.762 292.335 232.805 292.556 232.805H306.977C307.424 232.804 307.852 232.627 308.168 232.311C308.484 231.995 308.661 231.567 308.661 231.12V216.697C308.661 216.251 308.484 215.822 308.168 215.506C307.852 215.19 307.424 215.013 306.977 215.013Z" fill="#7A7B9B"/>
<path d="M337.269 116.658H322.849C322.402 116.658 321.974 116.836 321.658 117.152C321.342 117.468 321.165 117.896 321.165 118.343V132.772C321.165 132.993 321.209 133.211 321.293 133.415C321.378 133.619 321.502 133.804 321.659 133.96C321.815 134.116 322.001 134.24 322.205 134.324C322.409 134.408 322.628 134.451 322.849 134.45H337.269C337.715 134.45 338.143 134.274 338.458 133.959C338.774 133.645 338.952 133.218 338.954 132.772V118.343C338.952 117.896 338.775 117.469 338.459 117.153C338.143 116.837 337.716 116.659 337.269 116.658Z" fill="#FBFAF8"/>
<path d="M337.269 141.247H322.849C322.402 141.247 321.974 141.425 321.658 141.74C321.342 142.056 321.165 142.485 321.165 142.931V157.361C321.165 157.581 321.209 157.8 321.293 158.004C321.378 158.208 321.502 158.393 321.659 158.549C321.815 158.705 322.001 158.828 322.205 158.912C322.409 158.996 322.628 159.039 322.849 159.039H337.269C337.715 159.039 338.143 158.862 338.458 158.548C338.774 158.233 338.952 157.806 338.954 157.361V142.931C338.952 142.485 338.775 142.057 338.459 141.742C338.143 141.426 337.716 141.248 337.269 141.247Z" fill="#FBFAF8"/>
<path d="M337.269 165.835H322.849C322.402 165.836 321.974 166.013 321.658 166.329C321.342 166.645 321.165 167.073 321.165 167.52V181.943C321.164 182.164 321.207 182.383 321.292 182.588C321.376 182.793 321.5 182.978 321.657 183.135C321.813 183.291 321.999 183.416 322.204 183.5C322.408 183.585 322.628 183.628 322.849 183.627H337.269C337.716 183.627 338.144 183.45 338.46 183.134C338.776 182.818 338.954 182.39 338.954 181.943V167.52C338.953 167.074 338.775 166.646 338.459 166.33C338.143 166.015 337.716 165.837 337.269 165.835Z" fill="#7A7B9B"/>
<path d="M337.269 190.424H322.849C322.402 190.424 321.974 190.602 321.658 190.918C321.342 191.234 321.165 191.662 321.165 192.109V206.531C321.164 206.753 321.207 206.972 321.292 207.177C321.376 207.381 321.5 207.567 321.657 207.724C321.813 207.88 321.999 208.004 322.204 208.089C322.408 208.173 322.627 208.216 322.849 208.216H337.269C337.716 208.216 338.144 208.038 338.46 207.722C338.776 207.407 338.954 206.978 338.954 206.531V192.109C338.952 191.662 338.775 191.235 338.459 190.919C338.143 190.603 337.716 190.425 337.269 190.424Z" fill="#FBFAF8"/>
<path d="M337.269 215.013H322.849C322.627 215.012 322.408 215.056 322.204 215.14C321.999 215.225 321.813 215.349 321.657 215.505C321.5 215.662 321.376 215.848 321.292 216.052C321.207 216.257 321.164 216.476 321.165 216.697V231.12C321.164 231.341 321.207 231.561 321.292 231.765C321.376 231.97 321.5 232.156 321.657 232.312C321.813 232.469 321.999 232.593 322.204 232.677C322.408 232.762 322.627 232.805 322.849 232.805H337.269C337.716 232.804 338.144 232.627 338.46 232.311C338.776 231.995 338.954 231.567 338.954 231.12V216.697C338.954 216.251 338.776 215.822 338.46 215.506C338.144 215.19 337.716 215.013 337.269 215.013Z" fill="#FBFAF8"/>
<path d="M367.562 116.658H353.141C352.695 116.658 352.266 116.836 351.951 117.152C351.635 117.468 351.457 117.896 351.457 118.343V132.772C351.457 132.993 351.501 133.211 351.586 133.415C351.671 133.619 351.795 133.804 351.951 133.96C352.108 134.116 352.293 134.24 352.498 134.324C352.702 134.408 352.921 134.451 353.141 134.45H367.562C368.008 134.45 368.435 134.274 368.751 133.959C369.067 133.645 369.245 133.218 369.246 132.772V118.343C369.245 117.896 369.067 117.469 368.752 117.153C368.436 116.837 368.008 116.659 367.562 116.658Z" fill="#FBFAF8"/>
<path d="M367.562 141.247H353.141C352.695 141.247 352.266 141.425 351.951 141.74C351.635 142.056 351.457 142.485 351.457 142.931V157.361C351.457 157.581 351.501 157.8 351.586 158.004C351.671 158.208 351.795 158.393 351.951 158.549C352.108 158.705 352.293 158.828 352.498 158.912C352.702 158.996 352.921 159.039 353.141 159.039H367.562C368.008 159.039 368.435 158.862 368.751 158.548C369.067 158.233 369.245 157.806 369.246 157.361V142.931C369.245 142.485 369.067 142.057 368.752 141.742C368.436 141.426 368.008 141.248 367.562 141.247Z" fill="#C2C3E6"/>
<path d="M367.562 165.835H353.141C352.695 165.836 352.266 166.013 351.951 166.329C351.635 166.645 351.457 167.073 351.457 167.52V181.943C351.457 182.164 351.5 182.383 351.584 182.588C351.669 182.793 351.793 182.978 351.949 183.135C352.106 183.291 352.292 183.416 352.496 183.5C352.701 183.585 352.92 183.628 353.141 183.627H367.562C368.009 183.627 368.437 183.45 368.753 183.134C369.069 182.818 369.246 182.39 369.246 181.943V167.52C369.245 167.074 369.067 166.646 368.752 166.33C368.436 166.015 368.008 165.837 367.562 165.835Z" fill="#C2C3E6"/>
<path d="M367.562 190.424H353.141C352.695 190.424 352.266 190.602 351.951 190.918C351.635 191.234 351.457 191.662 351.457 192.109V206.531C351.457 206.753 351.5 206.972 351.584 207.177C351.669 207.381 351.793 207.567 351.949 207.724C352.106 207.88 352.292 208.004 352.496 208.089C352.701 208.173 352.92 208.216 353.141 208.216H367.562C368.009 208.216 368.437 208.038 368.753 207.722C369.069 207.407 369.246 206.978 369.246 206.531V192.109C369.245 191.662 369.067 191.235 368.752 190.919C368.436 190.603 368.008 190.425 367.562 190.424Z" fill="#7A7B9B"/>
<path d="M367.562 215.013H353.141C352.92 215.012 352.701 215.056 352.496 215.14C352.292 215.225 352.106 215.349 351.949 215.505C351.793 215.662 351.669 215.848 351.584 216.052C351.5 216.257 351.457 216.476 351.457 216.697V231.12C351.457 231.341 351.5 231.561 351.584 231.765C351.669 231.97 351.793 232.156 351.949 232.312C352.106 232.469 352.292 232.593 352.496 232.677C352.701 232.762 352.92 232.805 353.141 232.805H367.562C368.009 232.804 368.437 232.627 368.753 232.311C369.069 231.995 369.246 231.567 369.246 231.12V216.697C369.246 216.251 369.069 215.822 368.753 215.506C368.437 215.19 368.009 215.013 367.562 215.013Z" fill="#FBFAF8"/>
<path d="M397.854 116.658H383.427C382.981 116.66 382.554 116.838 382.24 117.154C381.925 117.469 381.749 117.897 381.749 118.343V132.772C381.749 133.217 381.926 133.644 382.241 133.958C382.555 134.273 382.982 134.45 383.427 134.45H397.854C398.3 134.45 398.727 134.274 399.043 133.959C399.359 133.645 399.537 133.218 399.538 132.772V118.343C399.537 117.896 399.359 117.469 399.044 117.153C398.728 116.837 398.3 116.659 397.854 116.658Z" fill="#C2C3E6"/>
<path d="M397.854 141.247H383.427C382.981 141.248 382.554 141.427 382.24 141.742C381.925 142.058 381.749 142.486 381.749 142.931V157.361C381.749 157.806 381.926 158.232 382.241 158.547C382.555 158.862 382.982 159.039 383.427 159.039H397.854C398.3 159.039 398.727 158.862 399.043 158.548C399.359 158.233 399.537 157.806 399.538 157.361V142.931C399.537 142.485 399.359 142.057 399.044 141.742C398.728 141.426 398.3 141.248 397.854 141.247Z" fill="#C2C3E6"/>
<path d="M397.854 165.835H383.427C382.981 165.837 382.554 166.015 382.24 166.331C381.925 166.647 381.749 167.074 381.749 167.52V181.943C381.748 182.164 381.791 182.383 381.875 182.587C381.959 182.791 382.083 182.977 382.239 183.133C382.395 183.29 382.58 183.414 382.784 183.499C382.987 183.583 383.206 183.627 383.427 183.627H397.854C398.301 183.627 398.729 183.45 399.045 183.134C399.361 182.818 399.538 182.39 399.538 181.943V167.52C399.537 167.074 399.359 166.646 399.044 166.33C398.728 166.015 398.3 165.837 397.854 165.835Z" fill="#C2C3E6"/>
<path d="M397.854 190.424H383.427C382.981 190.426 382.554 190.604 382.24 190.92C381.925 191.235 381.749 191.663 381.749 192.109V206.531C381.748 206.752 381.791 206.971 381.875 207.175C381.959 207.38 382.083 207.565 382.239 207.722C382.395 207.878 382.58 208.002 382.784 208.087C382.987 208.172 383.206 208.216 383.427 208.216H397.854C398.301 208.216 398.729 208.038 399.045 207.722C399.361 207.407 399.538 206.978 399.538 206.531V192.109C399.537 191.662 399.359 191.235 399.044 190.919C398.728 190.603 398.3 190.425 397.854 190.424Z" fill="#FBFAF8"/>
<path d="M397.854 215.013H383.427C383.206 215.013 382.987 215.057 382.784 215.142C382.58 215.226 382.395 215.351 382.239 215.507C382.083 215.663 381.959 215.849 381.875 216.053C381.791 216.258 381.748 216.476 381.749 216.697V231.12C381.748 231.341 381.791 231.56 381.875 231.764C381.959 231.968 382.083 232.154 382.239 232.31C382.395 232.467 382.58 232.591 382.784 232.676C382.987 232.761 383.206 232.804 383.427 232.805H397.854C398.301 232.804 398.729 232.627 399.045 232.311C399.361 231.995 399.538 231.567 399.538 231.12V216.697C399.538 216.251 399.361 215.822 399.045 215.506C398.729 215.19 398.301 215.013 397.854 215.013Z" fill="#7A7B9B"/>
<path d="M428.146 116.658H413.719C413.274 116.66 412.847 116.838 412.532 117.154C412.218 117.469 412.041 117.897 412.042 118.343V132.772C412.042 133.217 412.218 133.644 412.533 133.958C412.848 134.273 413.274 134.45 413.719 134.45H428.146C428.592 134.45 429.02 134.274 429.335 133.959C429.651 133.645 429.829 133.218 429.831 132.772V118.343C429.83 117.896 429.652 117.469 429.336 117.153C429.02 116.837 428.593 116.66 428.146 116.658Z" fill="#C2C3E6"/>
<path d="M428.146 141.247H413.719C413.274 141.248 412.847 141.427 412.532 141.742C412.218 142.058 412.041 142.486 412.042 142.931V157.361C412.042 157.806 412.218 158.232 412.533 158.547C412.848 158.862 413.274 159.039 413.719 159.039H428.146C428.592 159.039 429.02 158.862 429.335 158.548C429.651 158.233 429.829 157.806 429.831 157.361V142.931C429.83 142.485 429.652 142.057 429.336 141.742C429.02 141.426 428.593 141.248 428.146 141.247Z" fill="#C2C3E6"/>
<path d="M428.146 165.835H413.719C413.274 165.837 412.847 166.015 412.532 166.331C412.218 166.647 412.041 167.074 412.042 167.52V181.943C412.041 182.164 412.084 182.383 412.168 182.587C412.252 182.791 412.375 182.977 412.531 183.133C412.687 183.29 412.872 183.414 413.076 183.499C413.28 183.583 413.499 183.627 413.719 183.627H428.146C428.593 183.627 429.021 183.45 429.337 183.134C429.653 182.818 429.831 182.39 429.831 181.943V167.52C429.83 167.074 429.652 166.646 429.336 166.33C429.02 166.015 428.593 165.837 428.146 165.835Z" fill="#FBFAF8"/>
<path d="M428.146 190.424H413.719C413.274 190.426 412.847 190.604 412.532 190.92C412.218 191.235 412.041 191.663 412.042 192.109V206.531C412.041 206.752 412.084 206.971 412.168 207.175C412.252 207.38 412.375 207.565 412.531 207.722C412.687 207.878 412.872 208.002 413.076 208.087C413.28 208.172 413.499 208.216 413.719 208.216H428.146C428.593 208.216 429.021 208.038 429.337 207.722C429.653 207.407 429.831 206.978 429.831 206.531V192.109C429.83 191.662 429.652 191.235 429.336 190.919C429.02 190.603 428.593 190.425 428.146 190.424Z" fill="#7A7B9B"/>
<path d="M428.146 215.013H413.719C413.499 215.013 413.28 215.057 413.076 215.142C412.872 215.226 412.687 215.351 412.531 215.507C412.375 215.663 412.252 215.849 412.168 216.053C412.084 216.258 412.041 216.476 412.042 216.697V231.12C412.041 231.341 412.084 231.56 412.168 231.764C412.252 231.968 412.375 232.154 412.531 232.31C412.687 232.467 412.872 232.591 413.076 232.676C413.28 232.761 413.499 232.804 413.719 232.805H428.146C428.593 232.804 429.021 232.627 429.337 232.311C429.653 231.995 429.831 231.567 429.831 231.12V216.697C429.831 216.251 429.653 215.822 429.337 215.506C429.021 215.19 428.593 215.013 428.146 215.013Z" fill="#C2C3E6"/>
<path d="M458.438 116.658H444.011C443.566 116.66 443.139 116.838 442.824 117.154C442.51 117.469 442.333 117.897 442.333 118.343V132.772C442.334 133.217 442.51 133.644 442.825 133.958C443.14 134.273 443.566 134.45 444.011 134.45H458.438C458.884 134.45 459.312 134.274 459.627 133.959C459.943 133.645 460.121 133.218 460.123 132.772V118.343C460.121 117.896 459.944 117.469 459.628 117.153C459.312 116.837 458.885 116.66 458.438 116.658Z" fill="#FBFAF8"/>
<path d="M458.438 141.247H444.011C443.566 141.248 443.139 141.427 442.824 141.742C442.51 142.058 442.333 142.486 442.333 142.931V157.361C442.334 157.806 442.51 158.232 442.825 158.547C443.14 158.862 443.566 159.039 444.011 159.039H458.438C458.884 159.039 459.312 158.862 459.627 158.548C459.943 158.233 460.121 157.806 460.123 157.361V142.931C460.122 142.485 459.944 142.057 459.628 141.742C459.312 141.426 458.885 141.248 458.438 141.247Z" fill="#FBFAF8"/>
<path d="M458.438 165.835H444.011C443.566 165.837 443.139 166.015 442.824 166.331C442.51 166.647 442.333 167.074 442.334 167.52V181.943C442.333 182.164 442.376 182.383 442.46 182.587C442.544 182.791 442.667 182.977 442.823 183.133C442.979 183.29 443.164 183.414 443.368 183.499C443.572 183.583 443.791 183.627 444.011 183.627H458.438C458.885 183.627 459.313 183.45 459.629 183.134C459.945 182.818 460.123 182.39 460.123 181.943V167.52C460.122 167.074 459.944 166.646 459.628 166.33C459.312 166.015 458.885 165.837 458.438 165.835Z" fill="#7A7B9B"/>
<path d="M458.438 190.424H444.011C443.566 190.426 443.139 190.604 442.824 190.92C442.51 191.235 442.333 191.663 442.334 192.109V206.531C442.333 206.752 442.376 206.971 442.46 207.175C442.544 207.38 442.667 207.565 442.823 207.722C442.979 207.878 443.164 208.002 443.368 208.087C443.572 208.172 443.791 208.216 444.011 208.216H458.438C458.885 208.216 459.313 208.038 459.629 207.722C459.945 207.407 460.123 206.978 460.123 206.531V192.109C460.122 191.662 459.944 191.235 459.628 190.919C459.312 190.603 458.885 190.425 458.438 190.424Z" fill="#C2C3E6"/>
<path d="M458.438 215.013H444.011C443.791 215.013 443.572 215.057 443.368 215.142C443.164 215.226 442.979 215.351 442.823 215.507C442.667 215.663 442.544 215.849 442.46 216.053C442.376 216.258 442.333 216.476 442.334 216.697V231.12C442.333 231.341 442.376 231.56 442.46 231.764C442.544 231.968 442.667 232.154 442.823 232.31C442.979 232.467 443.164 232.591 443.368 232.676C443.572 232.761 443.791 232.804 444.011 232.805H458.438C458.885 232.804 459.313 232.627 459.629 232.311C459.945 231.995 460.123 231.567 460.123 231.12V216.697C460.123 216.251 459.945 215.822 459.629 215.506C459.313 215.19 458.885 215.013 458.438 215.013Z" fill="#FBFAF8"/>
<path d="M488.731 116.658H474.304C473.859 116.66 473.432 116.838 473.117 117.154C472.803 117.469 472.626 117.897 472.626 118.343V132.772C472.627 133.217 472.803 133.644 473.118 133.958C473.433 134.273 473.859 134.45 474.304 134.45H488.731C489.177 134.45 489.605 134.274 489.92 133.959C490.236 133.645 490.414 133.218 490.416 132.772V118.343C490.414 117.896 490.237 117.469 489.921 117.153C489.605 116.837 489.178 116.66 488.731 116.658Z" fill="#FBFAF8"/>
<path d="M488.731 141.247H474.304C473.859 141.248 473.432 141.427 473.117 141.742C472.803 142.058 472.626 142.486 472.626 142.931V157.361C472.627 157.806 472.803 158.232 473.118 158.547C473.433 158.862 473.859 159.039 474.304 159.039H488.731C489.177 159.039 489.605 158.862 489.92 158.548C490.236 158.233 490.414 157.806 490.416 157.361V142.931C490.414 142.485 490.237 142.057 489.921 141.742C489.605 141.426 489.178 141.248 488.731 141.247Z" fill="#FBFAF8"/>
<path d="M488.731 165.835H474.304C473.859 165.837 473.432 166.015 473.117 166.331C472.803 166.647 472.626 167.074 472.626 167.52V181.943C472.626 182.164 472.669 182.383 472.753 182.587C472.837 182.791 472.96 182.977 473.116 183.133C473.272 183.29 473.457 183.414 473.661 183.499C473.865 183.583 474.084 183.627 474.304 183.627H488.731C489.178 183.627 489.606 183.45 489.922 183.134C490.238 182.818 490.416 182.39 490.416 181.943V167.52C490.414 167.074 490.237 166.646 489.921 166.33C489.605 166.015 489.178 165.837 488.731 165.835Z" fill="#7A7B9B"/>
<path d="M488.731 190.424H474.304C473.859 190.426 473.432 190.604 473.117 190.92C472.803 191.235 472.626 191.663 472.626 192.109V206.531C472.626 206.752 472.669 206.971 472.753 207.175C472.837 207.38 472.96 207.565 473.116 207.722C473.272 207.878 473.457 208.002 473.661 208.087C473.865 208.172 474.084 208.216 474.304 208.216H488.731C489.178 208.216 489.606 208.038 489.922 207.722C490.238 207.407 490.416 206.978 490.416 206.531V192.109C490.414 191.662 490.237 191.235 489.921 190.919C489.605 190.603 489.178 190.425 488.731 190.424Z" fill="#FBFAF8"/>
<path d="M488.731 215.013H474.304C474.084 215.013 473.865 215.057 473.661 215.142C473.457 215.226 473.272 215.351 473.116 215.507C472.96 215.663 472.837 215.849 472.753 216.053C472.669 216.258 472.626 216.476 472.626 216.697V231.12C472.626 231.341 472.669 231.56 472.753 231.764C472.837 231.968 472.96 232.154 473.116 232.31C473.272 232.467 473.457 232.591 473.661 232.676C473.865 232.761 474.084 232.804 474.304 232.805H488.731C489.178 232.804 489.606 232.627 489.922 232.311C490.238 231.995 490.416 231.567 490.416 231.12V216.697C490.416 216.251 490.238 215.822 489.922 215.506C489.606 215.19 489.178 215.013 488.731 215.013Z" fill="#FBFAF8"/>
<path d="M519.023 116.658H504.596C504.15 116.66 503.723 116.838 503.409 117.154C503.094 117.469 502.918 117.897 502.918 118.343V132.772C502.918 133.217 503.095 133.644 503.409 133.958C503.724 134.273 504.151 134.45 504.596 134.45H519.023C519.469 134.45 519.896 134.274 520.212 133.959C520.528 133.645 520.706 133.218 520.707 132.772V118.343C520.706 117.896 520.528 117.469 520.212 117.153C519.897 116.837 519.469 116.66 519.023 116.658Z" fill="#7A7B9B"/>
<path d="M519.023 141.247H504.596C504.15 141.248 503.723 141.427 503.409 141.742C503.094 142.058 502.918 142.486 502.918 142.931V157.361C502.918 157.806 503.095 158.232 503.409 158.547C503.724 158.862 504.151 159.039 504.596 159.039H519.023C519.469 159.039 519.896 158.862 520.212 158.548C520.528 158.233 520.706 157.806 520.707 157.361V142.931C520.706 142.485 520.528 142.057 520.212 141.742C519.897 141.426 519.469 141.248 519.023 141.247Z" fill="#FBFAF8"/>
<path d="M519.023 165.835H504.596C504.15 165.837 503.723 166.015 503.409 166.331C503.094 166.647 502.918 167.074 502.918 167.52V181.943C502.917 182.164 502.96 182.383 503.044 182.587C503.128 182.791 503.252 182.977 503.408 183.133C503.563 183.29 503.749 183.414 503.953 183.499C504.156 183.583 504.375 183.627 504.596 183.627H519.023C519.47 183.627 519.898 183.45 520.214 183.134C520.529 182.818 520.707 182.39 520.707 181.943V167.52C520.706 167.074 520.528 166.646 520.212 166.33C519.897 166.015 519.469 165.837 519.023 165.835Z" fill="#FBFAF8"/>
<path d="M519.023 190.424H504.596C504.15 190.426 503.723 190.604 503.409 190.92C503.094 191.235 502.918 191.663 502.918 192.109V206.531C502.917 206.752 502.96 206.971 503.044 207.175C503.128 207.38 503.252 207.565 503.408 207.722C503.563 207.878 503.749 208.002 503.953 208.087C504.156 208.172 504.375 208.216 504.596 208.216H519.023C519.47 208.216 519.898 208.038 520.214 207.722C520.53 207.407 520.707 206.978 520.707 206.531V192.109C520.706 191.662 520.528 191.235 520.212 190.919C519.897 190.603 519.469 190.425 519.023 190.424Z" fill="#FBFAF8"/>
<path d="M519.023 215.013H504.596C504.375 215.013 504.156 215.057 503.953 215.142C503.749 215.226 503.563 215.351 503.408 215.507C503.252 215.663 503.128 215.849 503.044 216.053C502.96 216.258 502.917 216.476 502.918 216.697V231.12C502.917 231.341 502.96 231.56 503.044 231.764C503.128 231.968 503.252 232.154 503.408 232.31C503.563 232.467 503.749 232.591 503.953 232.676C504.156 232.761 504.375 232.804 504.596 232.805H519.023C519.47 232.804 519.898 232.627 520.214 232.311C520.53 231.995 520.707 231.567 520.707 231.12V216.697C520.707 216.251 520.53 215.822 520.214 215.506C519.898 215.19 519.47 215.013 519.023 215.013Z" fill="#7A7B9B"/>
<path d="M549.315 116.658H534.888C534.443 116.66 534.016 116.838 533.701 117.154C533.387 117.469 533.21 117.897 533.21 118.343V132.772C533.211 133.217 533.387 133.644 533.702 133.958C534.017 134.273 534.443 134.45 534.888 134.45H549.315C549.761 134.45 550.189 134.274 550.504 133.959C550.82 133.645 550.998 133.218 551 132.772V118.343C550.998 117.896 550.821 117.469 550.505 117.153C550.189 116.837 549.762 116.66 549.315 116.658Z" fill="#7A7B9B"/>
<path d="M549.315 141.247H534.888C534.443 141.248 534.016 141.427 533.701 141.742C533.387 142.058 533.21 142.486 533.21 142.931V157.361C533.211 157.806 533.387 158.232 533.702 158.547C534.017 158.862 534.443 159.039 534.888 159.039H549.315C549.761 159.039 550.189 158.862 550.504 158.548C550.82 158.233 550.998 157.806 551 157.361V142.931C550.999 142.485 550.821 142.057 550.505 141.742C550.189 141.426 549.762 141.248 549.315 141.247Z" fill="#7A7B9B"/>
<path d="M549.315 165.835H534.888C534.443 165.837 534.016 166.015 533.701 166.331C533.387 166.647 533.21 167.074 533.21 167.52V181.943C533.21 182.164 533.253 182.383 533.337 182.587C533.421 182.791 533.544 182.977 533.7 183.133C533.856 183.29 534.041 183.414 534.245 183.499C534.449 183.583 534.668 183.627 534.888 183.627H549.315C549.762 183.627 550.19 183.45 550.506 183.134C550.822 182.818 551 182.39 551 181.943V167.52C550.999 167.074 550.821 166.646 550.505 166.33C550.189 166.015 549.762 165.837 549.315 165.835Z" fill="#FBFAF8"/>
<path d="M549.315 190.424H534.888C534.443 190.426 534.016 190.604 533.701 190.92C533.387 191.235 533.21 191.663 533.21 192.109V206.531C533.21 206.752 533.253 206.971 533.337 207.175C533.421 207.38 533.544 207.565 533.7 207.722C533.856 207.878 534.041 208.002 534.245 208.087C534.449 208.172 534.668 208.216 534.888 208.216H549.315C549.762 208.216 550.19 208.038 550.506 207.722C550.822 207.407 551 206.978 551 206.531V192.109C550.999 191.662 550.821 191.235 550.505 190.919C550.189 190.603 549.762 190.425 549.315 190.424Z" fill="#7A7B9B"/>
<path d="M549.315 215.013H534.888C534.668 215.013 534.449 215.057 534.245 215.142C534.041 215.226 533.856 215.351 533.7 215.507C533.544 215.663 533.421 215.849 533.337 216.053C533.253 216.258 533.21 216.476 533.21 216.697V231.12C533.21 231.341 533.253 231.56 533.337 231.764C533.421 231.968 533.544 232.154 533.7 232.31C533.856 232.467 534.041 232.591 534.245 232.676C534.449 232.761 534.668 232.804 534.888 232.805H549.315C549.762 232.804 550.19 232.627 550.506 232.311C550.822 231.995 551 231.567 551 231.12V216.697C551 216.251 550.822 215.822 550.506 215.506C550.19 215.19 549.762 215.013 549.315 215.013Z" fill="#7A7B9B"/>
<path d="M217.731 427.662H217.329L217.672 427.616L217.731 427.662Z" fill="#000020"/>
<path d="M183.214 158.776C207.659 158.776 227.475 138.957 227.475 114.509C227.475 90.061 207.659 70.2419 183.214 70.2419C158.77 70.2419 138.954 90.061 138.954 114.509C138.954 138.957 158.77 158.776 183.214 158.776Z" fill="#FFC8B6"/>
<path d="M221.975 82.0531C221.975 82.0531 233.551 59.9195 208.083 57.9073C208.083 57.9073 186.371 38.209 164.241 54.3061C164.241 54.3061 152.17 54.3061 145.569 67.968C145.569 67.968 136.075 64.3669 133.989 74.0045C133.989 74.0045 127.042 94.126 133.989 112.235C140.936 130.345 143.243 132.357 143.243 132.357C143.243 132.357 131.828 94.3896 159.614 92.3774C187.4 90.3652 218.492 72.9984 220.808 95.132C223.124 117.266 226.608 122.719 226.608 122.719C226.608 122.719 248.602 91.1078 221.975 82.0531Z" fill="#232641"/>
<path d="M297.707 223.604L297.564 224.356L295.964 232.805L284.906 291.247L284.251 294.688L282.878 301.964L280.999 311.89L276.834 333.887L275.642 340.191L275.195 342.556L275.039 343.386L273.802 349.91L273.426 351.88L270.407 374.253L267.771 393.749L276.594 402.573L271.334 407.834L267.881 427.615L267.887 427.661H126.966C121.265 423.968 115.646 420.16 110.11 416.238L111.269 407.556C111.269 407.556 115.26 392.051 113.582 390.198C111.91 388.345 108.244 385.034 108.244 385.034L112.863 374.253L113.504 372.756L112.429 350.448L112.403 349.91L112.047 342.556L112.001 341.61L111.93 340.191L110.563 311.89L110.537 311.423L110.123 302.845L109.734 294.688L109.565 291.247L107.9 256.823L106.773 233.446L105.789 213.095L109.747 211.754L152.082 197.363L169.619 174.563L206.117 174.835L223.984 174.971L253.797 202.624L260.58 205.864L260.632 205.89L265.497 208.216L277.831 214.106L290.872 220.339L297.564 223.533L297.707 223.604Z" fill="#FF9300"/>
<path d="M174.336 361.25C171.661 362.286 168.792 362.723 165.93 362.531C163.068 362.338 160.283 361.52 157.772 360.134C155.26 358.749 153.083 356.829 151.393 354.511C149.704 352.193 148.543 349.532 147.992 346.717L78.9609 336.922L102.958 309.772L164.833 323.236C169.623 322.625 174.471 323.793 178.458 326.518C182.445 329.243 185.295 333.336 186.466 338.022C187.637 342.707 187.05 347.66 184.814 351.941C182.578 356.222 178.85 359.534 174.336 361.25Z" fill="#FFC8B6"/>
<path d="M143.557 311.89C142.278 310.269 140.468 309.151 138.445 308.735L110.122 302.845L107.214 302.243C105.523 301.89 103.926 301.184 102.528 300.171C101.129 299.158 99.9595 297.862 99.0964 296.366C98.201 294.796 97.6594 293.049 97.5092 291.247C97.3742 289.609 97.5703 287.961 98.0858 286.401L107.9 256.823L114.268 237.632C115.04 235.317 115.496 232.909 115.622 230.472C115.977 223.729 113.891 217.084 109.747 211.754C106.103 207.069 101.049 203.68 95.3315 202.089C89.6141 200.497 83.5366 200.787 77.9967 202.916C77.8347 202.974 77.6663 203.039 77.5043 203.104C73.5314 204.691 69.9819 207.18 67.1362 210.374C64.2905 213.569 62.2267 217.382 61.1079 221.511L54.1891 246.683L39.9175 298.575C38.4889 303.774 38.2003 309.221 39.0714 314.542C39.9426 319.863 41.9529 324.933 44.9649 329.405C47.9769 333.877 51.9194 337.645 56.5225 340.452C61.1257 343.258 66.2808 345.037 71.635 345.666L112.429 350.448L131.306 352.664C133.489 352.926 135.691 352.356 137.472 351.068C139.254 349.78 140.485 347.867 140.92 345.712C140.95 345.594 140.974 345.475 140.991 345.355L141.445 342.556L145.286 318.985L145.325 318.745C145.525 317.542 145.471 316.311 145.167 315.13C144.862 313.95 144.314 312.846 143.557 311.89Z" fill="#FF9300"/>
<path d="M218.306 362.005C221.1 362.654 224.002 362.682 226.809 362.088C229.615 361.493 232.256 360.291 234.547 358.565C236.838 356.839 238.723 354.631 240.069 352.098C241.415 349.565 242.189 346.767 242.337 343.902L309.297 324.469L281.712 300.975L222.354 323.031C217.526 323.102 212.891 324.942 209.327 328.202C205.764 331.462 203.521 335.916 203.022 340.72C202.523 345.524 203.803 350.344 206.62 354.267C209.437 358.19 213.595 360.944 218.306 362.005Z" fill="#FFC8B6"/>
<path d="M342.542 280.997L310.695 207.691C308.09 201.673 303.438 196.772 297.564 193.858C295.748 192.964 293.841 192.269 291.876 191.785C291.572 191.707 291.267 191.636 290.963 191.577C286.796 190.668 282.474 190.748 278.343 191.811C274.567 192.781 271.038 194.536 267.987 196.962C264.935 199.388 262.429 202.43 260.631 205.89C260.612 205.919 260.594 205.949 260.58 205.981C258.572 209.865 257.505 214.166 257.463 218.538C257.421 222.91 258.407 227.231 260.34 231.152L260.735 231.943L283.241 277.148C284.009 278.694 284.442 280.385 284.511 282.11C284.58 283.835 284.284 285.555 283.642 287.158C282.999 288.76 282.025 290.208 280.784 291.408C279.543 292.607 278.062 293.531 276.438 294.118L274.858 294.688L246.431 304.957C244.298 305.719 242.544 307.278 241.537 309.307C240.53 311.336 240.35 313.677 241.035 315.836L241.106 316.063L249.074 341.565C249.113 341.682 249.152 341.798 249.197 341.915C249.267 342.135 249.354 342.349 249.456 342.556C250.303 344.456 251.8 345.991 253.678 346.885C255.555 347.78 257.69 347.975 259.698 347.435L275.039 343.386L278.168 342.556L317.782 332.092C322.995 330.715 327.848 328.227 332.01 324.799C336.172 321.371 339.544 317.084 341.895 312.232C344.247 307.38 345.522 302.076 345.634 296.685C345.745 291.294 344.691 285.943 342.542 280.997Z" fill="#FF9300"/>
<path d="M29.0864 342.556C38.2664 353.755 48.1667 364.343 58.7244 374.253H351.522C354.343 374.257 357.047 375.38 359.041 377.376C361.035 379.371 362.157 382.077 362.159 384.898L362.58 459.104C380.593 450.828 397.461 440.259 412.767 427.661C417.017 424.169 421.135 420.525 425.121 416.73C427.732 414.255 430.28 411.72 432.766 409.124C451.4 389.709 466.489 367.179 477.349 342.556H29.0864Z" fill="#000020"/>
<path d="M432.765 409.124C430.284 411.722 427.736 414.257 425.121 416.73H362.793V409.124H432.765Z" fill="#C2C3E6"/>
<path d="M297.124 165.835C296.816 165.267 296.36 164.792 295.805 164.462C295.25 164.131 294.615 163.956 293.969 163.956H81.586C80.6338 163.959 79.7214 164.339 79.0487 165.013C78.376 165.687 77.9979 166.6 77.9971 167.552V294.688H297.564V167.552C297.568 166.952 297.416 166.36 297.124 165.835Z" fill="#000020"/>
<path d="M77.8042 291.246V306.934C77.8042 307.585 77.9323 308.229 78.1811 308.83C78.43 309.431 78.7947 309.977 79.2546 310.436C79.7144 310.896 80.2603 311.261 80.8611 311.51C81.4619 311.759 82.1058 311.887 82.7561 311.887H163.797V342.849H162.72C162.636 342.849 162.552 342.866 162.474 342.898C162.396 342.93 162.325 342.978 162.265 343.037C162.206 343.097 162.158 343.168 162.126 343.246C162.094 343.324 162.077 343.408 162.077 343.492V345.646C162.077 345.73 162.094 345.814 162.126 345.892C162.158 345.97 162.206 346.041 162.265 346.101C162.325 346.161 162.396 346.208 162.474 346.24C162.552 346.273 162.636 346.289 162.72 346.289H213.029C213.114 346.289 213.197 346.273 213.276 346.24C213.354 346.208 213.424 346.161 213.484 346.101C213.544 346.041 213.591 345.97 213.624 345.892C213.656 345.814 213.673 345.73 213.673 345.646V343.492C213.673 343.408 213.656 343.324 213.624 343.246C213.591 343.168 213.544 343.097 213.484 343.037C213.424 342.978 213.354 342.93 213.276 342.898C213.197 342.866 213.114 342.849 213.029 342.849H211.953V311.887H292.994C293.644 311.887 294.288 311.759 294.889 311.51C295.489 311.261 296.035 310.896 296.495 310.436C296.955 309.977 297.32 309.431 297.568 308.83C297.817 308.229 297.945 307.585 297.945 306.934V291.246H77.8042Z" fill="#000020"/>
<path d="M185.216 246.217C196.417 246.217 205.497 237.136 205.497 225.933C205.497 214.73 196.417 205.649 185.216 205.649C174.015 205.649 164.935 214.73 164.935 225.933C164.935 237.136 174.015 246.217 185.216 246.217Z" fill="#FBFAF8"/>
<path d="M236.889 112.09H233.65C233.65 87.5989 209.415 71.5498 184.966 71.5369C181.41 71.5265 177.861 71.8716 174.374 72.5671C170.448 73.351 166.373 74.2905 162.37 75.5151C146.582 80.3551 131.941 89.7111 131.941 112.09C131.938 116.437 132.491 120.765 133.587 124.971L130.451 125.787C129.288 121.315 128.701 116.712 128.702 112.09C128.702 92.536 136.729 79.1046 150.592 71.0963C157.88 66.8848 166.775 64.17 176.965 62.8482C181.206 62.284 185.493 62.1537 189.76 62.4595C217.875 64.481 236.889 86.0438 236.889 112.09Z" fill="#FBFAF8"/>
<path d="M242.285 113.885L241.009 104.451C240.694 102.069 239.547 99.8747 237.77 98.2571C236.629 97.2026 235.264 96.4213 233.777 95.9723C232.29 95.5233 230.72 95.4184 229.186 95.6654L227.159 95.944C226.604 96.0171 226.069 96.1996 225.585 96.481C225.102 96.7624 224.678 97.1371 224.341 97.5833C224 98.028 223.751 98.5358 223.607 99.0774C223.464 99.6189 223.429 100.184 223.505 100.739L226.453 122.47C226.574 123.356 226.971 124.181 227.587 124.828C228.203 125.476 229.008 125.914 229.886 126.079C230.146 126.131 230.411 126.157 230.676 126.157C230.867 126.157 231.058 126.144 231.246 126.118L233.514 125.813C234.896 125.63 236.227 125.166 237.423 124.449C238.62 123.733 239.657 122.779 240.471 121.647C240.646 121.401 240.815 121.148 240.97 120.889C242.185 118.769 242.648 116.301 242.285 113.885Z" fill="#FBFAF8"/>
<path d="M225.85 96.3393C225.256 96.6283 224.738 97.0547 224.341 97.5833C224 98.028 223.751 98.5358 223.607 99.0774C223.464 99.619 223.429 100.184 223.505 100.739L226.453 122.47C226.574 123.356 226.971 124.181 227.588 124.828C228.204 125.476 229.008 125.914 229.887 126.079L225.85 96.3393Z" fill="#C2C3E6"/>
<path d="M242.286 113.885L241.01 104.451C240.695 102.069 239.547 99.8747 237.77 98.2571L240.705 119.878C240.749 120.225 240.838 120.565 240.971 120.889C242.185 118.769 242.649 116.301 242.286 113.885Z" fill="#000020"/>
<path d="M232.199 120.682C233.085 120.562 233.531 118.452 233.194 115.97C232.858 113.488 231.866 111.573 230.98 111.694C230.093 111.814 229.647 113.923 229.984 116.406C230.321 118.888 231.312 120.802 232.199 120.682Z" fill="#000020"/>
<path d="M230.255 109.02C231.142 108.899 231.588 106.79 231.251 104.308C230.914 101.825 229.923 99.9107 229.036 100.031C228.15 100.151 227.704 102.261 228.041 104.743C228.377 107.225 229.369 109.14 230.255 109.02Z" fill="#000020"/>
<path d="M242.564 113.555C243.451 113.435 243.896 111.325 243.56 108.843C243.223 106.361 242.231 104.446 241.345 104.566C240.458 104.687 240.013 106.796 240.349 109.278C240.686 111.761 241.678 113.675 242.564 113.555Z" fill="#000020"/>
<path d="M184.965 71.5369C181.409 71.5265 177.861 71.8716 174.373 72.5671C170.448 73.351 166.373 74.2905 162.369 75.5151C156.118 75.2106 151.518 73.5908 150.592 71.0963C157.88 66.8848 166.774 64.17 176.965 62.8482C181.205 62.284 185.492 62.1537 189.759 62.4595C190.211 62.7243 190.602 63.0818 190.905 63.5084C191.209 63.9349 191.419 64.421 191.521 64.9345C191.826 67.1893 189.254 69.5866 184.965 71.5369Z" fill="#414360"/>
<path d="M143.608 134.573L138.62 113.833C138.442 113.085 138.047 112.406 137.485 111.881C136.922 111.357 136.217 111.01 135.459 110.885C135.244 110.852 135.028 110.834 134.811 110.833C134.505 110.834 134.201 110.871 133.904 110.943L131.973 111.41C129.488 112.011 127.342 113.574 126.007 115.756C124.673 117.937 124.258 120.559 124.854 123.047L127.089 132.351C127.599 134.541 128.815 136.503 130.548 137.936C130.829 138.163 131.123 138.373 131.429 138.564C132.515 139.245 133.726 139.701 134.991 139.906C136.257 140.111 137.55 140.06 138.795 139.757L140.719 139.29C141.228 139.171 141.706 138.949 142.125 138.636C142.747 138.182 143.22 137.553 143.484 136.83C143.749 136.107 143.792 135.321 143.608 134.573Z" fill="#FBFAF8"/>
<path d="M133.151 130.714C134.021 130.505 134.251 128.361 133.665 125.926C133.079 123.49 131.899 121.686 131.029 121.895C130.16 122.104 129.93 124.248 130.516 126.684C131.102 129.119 132.282 130.924 133.151 130.714Z" fill="#000020"/>
<path d="M126.673 132.658C127.543 132.449 127.773 130.305 127.187 127.869C126.601 125.434 125.421 123.629 124.551 123.839C123.682 124.048 123.452 126.192 124.038 128.627C124.624 131.063 125.804 132.867 126.673 132.658Z" fill="#000020"/>
<path d="M143.926 134.495L138.938 113.755C138.743 112.946 138.315 112.212 137.705 111.645C137.095 111.077 136.332 110.703 135.511 110.568L142.319 138.895C142.992 138.402 143.503 137.722 143.789 136.939C144.075 136.156 144.123 135.305 143.926 134.495Z" fill="#C2C3E6"/>
<path d="M125.982 118.939C125.844 118.362 125.585 117.821 125.223 117.351C124.522 119.168 124.393 121.155 124.854 123.047L127.089 132.351C127.6 134.541 128.815 136.504 130.549 137.936L125.982 118.939Z" fill="#000020"/>
</g>
<defs>
<clipPath id="clip0_714_372">
<rect width="551" height="480" fill="white"/>
</clipPath>
</defs>
</svg>
