<svg width="398" height="600" viewBox="0 0 398 600" fill="none" xmlns="http://www.w3.org/2000/svg">
<g clip-path="url(#clip0_715_1027)">
<path d="M310.863 163.037C311.128 130.575 312.448 97.7989 314.824 64.709C314.863 64.0522 314.912 63.4051 314.961 62.7482C316.216 45.5218 317.752 28.2334 319.569 10.8829V10.7848C319.568 7.92505 318.431 5.18288 316.409 3.1607C314.386 1.13852 311.644 0.00170655 308.784 0H19.5546C16.7045 0.0055999 13.972 1.13694 11.952 3.14768C9.9321 5.15843 8.78834 7.88575 8.76976 10.7358C6.25983 34.6291 4.2924 58.4048 2.86749 82.0628C2.80866 82.8374 2.76946 83.6021 2.73024 84.3767C2.02433 96.0733 1.46221 107.741 1.04389 119.378C1.01447 120.065 0.985052 120.751 0.975247 121.437C-1.70153 192.843 0.903745 264.348 8.76976 335.369C8.79038 338.218 9.9351 340.943 11.9549 342.952C13.9746 344.961 16.706 346.09 19.5546 346.095H308.784C311.644 346.094 314.386 344.957 316.409 342.935C318.431 340.912 319.568 338.17 319.569 335.311V335.203C318.148 322.584 316.899 309.884 315.824 297.103C315.667 295.23 315.514 293.357 315.363 291.485C314.618 282.279 313.968 273.036 313.412 263.758C313.294 261.885 313.187 260.013 313.089 258.14C312.04 239.571 311.353 220.857 311.03 202C310.99 200.127 310.961 198.265 310.932 196.382C310.814 187.176 310.778 177.934 310.824 168.655C310.824 166.783 310.834 164.91 310.863 163.037Z" fill="#E6E7FF"/>
<path d="M398.004 73.533C398.002 70.6732 396.866 67.931 394.844 65.9089C392.821 63.8867 390.079 62.7499 387.219 62.7482H97.9895C95.1394 62.7538 92.4069 63.8851 90.387 65.8959C88.367 67.9066 87.2233 70.6339 87.2047 73.484C77.4395 166.596 75.8218 258.062 82.3613 346.095C83.1555 356.988 84.0836 367.825 85.1458 378.607C85.7144 384.382 86.319 390.14 86.9596 395.882C87.038 396.627 87.1165 397.372 87.2047 398.118C87.2253 400.966 88.37 403.691 90.3898 405.7C92.4096 407.709 95.1409 408.839 97.9895 408.844H387.219C390.079 408.842 392.821 407.705 394.844 405.683C396.866 403.661 398.002 400.919 398.004 398.059V397.951C386.308 294.25 386.308 185.137 398.004 73.6311V73.533Z" fill="#E6E7FF"/>
<path d="M398.004 73.533C398.002 70.6732 396.866 67.931 394.844 65.9089C392.821 63.8867 390.079 62.7499 387.219 62.7482H97.9895C95.1394 62.7538 92.4069 63.8851 90.387 65.8959C88.367 67.9066 87.2233 70.6339 87.2047 73.484C77.4395 166.596 75.8218 258.062 82.3613 346.095C83.1555 356.988 84.0836 367.825 85.1458 378.607C85.7144 384.382 86.319 390.14 86.9596 395.882C87.038 396.627 87.1165 397.372 87.2047 398.118C87.2253 400.966 88.37 403.691 90.3898 405.7C92.4096 407.709 95.1409 408.839 97.9895 408.844H387.219C390.079 408.842 392.821 407.705 394.844 405.683C396.866 403.661 398.002 400.919 398.004 398.059V397.951C386.308 294.25 386.308 185.137 398.004 73.6311V73.533ZM396.043 398.118C396.026 400.447 395.089 402.675 393.436 404.317C391.783 405.959 389.549 406.881 387.219 406.883H97.9895C95.6504 406.879 93.408 405.948 91.7539 404.294C90.0999 402.64 89.1691 400.398 89.1656 398.059V397.951C89.0969 397.323 89.0283 396.686 88.9597 396.059C88.2832 390.058 87.6524 384.042 87.0674 378.009C86.038 367.43 85.1262 356.792 84.332 346.095C77.7925 258.111 79.4004 166.704 89.1656 73.6311V73.533C89.1691 71.1938 90.0999 68.9515 91.7539 67.2974C93.408 65.6434 95.6504 64.7126 97.9895 64.709H387.219C389.551 64.7098 391.787 65.633 393.441 67.277C395.094 68.9211 396.03 71.1525 396.043 73.484C384.347 185.078 384.347 294.309 396.043 398.118Z" fill="#D7D8FB"/>
<path d="M117.926 163.038C117.182 163.04 116.469 163.337 115.944 163.863C115.419 164.39 115.124 165.104 115.124 165.848C115.124 166.592 115.419 167.306 115.944 167.832C116.469 168.359 117.182 168.656 117.926 168.658H352.968C353.712 168.656 354.425 168.359 354.951 167.832C355.476 167.306 355.771 166.592 355.771 165.848C355.771 165.104 355.476 164.39 354.951 163.863C354.425 163.337 353.712 163.04 352.968 163.038H117.926Z" fill="#535573"/>
<path d="M117.926 179.901C117.181 179.902 116.468 180.199 115.942 180.726C115.416 181.253 115.121 181.967 115.121 182.711C115.121 183.456 115.416 184.17 115.942 184.696C116.468 185.223 117.181 185.52 117.926 185.521H277.487C278.232 185.52 278.945 185.223 279.471 184.696C279.997 184.17 280.292 183.456 280.292 182.711C280.292 181.967 279.997 181.253 279.471 180.726C278.945 180.199 278.232 179.902 277.487 179.901H117.926Z" fill="#535573"/>
<path d="M117.926 196.383C117.181 196.384 116.468 196.681 115.942 197.208C115.416 197.735 115.121 198.449 115.121 199.193C115.121 199.937 115.416 200.651 115.942 201.178C116.468 201.705 117.181 202.002 117.926 202.003H352.968C353.712 202.002 354.426 201.705 354.952 201.178C355.477 200.651 355.773 199.937 355.773 199.193C355.773 198.449 355.477 197.735 354.952 197.208C354.426 196.681 353.712 196.384 352.968 196.383H117.926Z" fill="#535573"/>
<path d="M117.926 213.246C117.182 213.248 116.469 213.545 115.944 214.072C115.419 214.599 115.124 215.312 115.124 216.056C115.124 216.8 115.419 217.514 115.944 218.041C116.469 218.568 117.182 218.865 117.926 218.867H277.488C278.232 218.865 278.945 218.568 279.47 218.041C279.996 217.514 280.291 216.8 280.291 216.056C280.291 215.312 279.996 214.599 279.47 214.072C278.945 213.545 278.232 213.248 277.488 213.246H117.926Z" fill="#535573"/>
<path d="M117.926 258.14C117.182 258.142 116.469 258.439 115.944 258.966C115.419 259.493 115.124 260.207 115.124 260.951C115.124 261.695 115.419 262.408 115.944 262.935C116.469 263.462 117.182 263.759 117.926 263.761H352.968C353.712 263.759 354.425 263.462 354.951 262.935C355.476 262.408 355.771 261.695 355.771 260.951C355.771 260.207 355.476 259.493 354.951 258.966C354.425 258.439 353.712 258.142 352.968 258.14H117.926Z" fill="#535573"/>
<path d="M117.926 275.004C117.181 275.005 116.468 275.302 115.942 275.829C115.416 276.356 115.121 277.07 115.121 277.814C115.121 278.559 115.416 279.272 115.942 279.799C116.468 280.326 117.181 280.623 117.926 280.624H277.487C278.232 280.623 278.945 280.326 279.471 279.799C279.997 279.272 280.292 278.559 280.292 277.814C280.292 277.07 279.997 276.356 279.471 275.829C278.945 275.302 278.232 275.005 277.487 275.004H117.926Z" fill="#535573"/>
<path d="M117.926 291.485C117.181 291.487 116.468 291.784 115.942 292.31C115.416 292.837 115.121 293.551 115.121 294.296C115.121 295.04 115.416 295.754 115.942 296.281C116.468 296.808 117.181 297.105 117.926 297.106H352.968C353.712 297.105 354.426 296.808 354.952 296.281C355.477 295.754 355.773 295.04 355.773 294.296C355.773 293.551 355.477 292.837 354.952 292.31C354.426 291.784 353.712 291.487 352.968 291.485H117.926Z" fill="#535573"/>
<path d="M117.926 308.349C117.182 308.351 116.469 308.648 115.944 309.174C115.419 309.701 115.124 310.415 115.124 311.159C115.124 311.903 115.419 312.617 115.944 313.143C116.469 313.67 117.182 313.967 117.926 313.969H277.488C278.232 313.967 278.945 313.67 279.47 313.143C279.996 312.617 280.291 311.903 280.291 311.159C280.291 310.415 279.996 309.701 279.47 309.174C278.945 308.648 278.232 308.351 277.488 308.349H117.926Z" fill="#535573"/>
<path d="M164.432 128.143H119.54C118.958 128.143 118.401 127.911 117.99 127.5C117.579 127.089 117.347 126.532 117.347 125.95V118.758C117.347 118.176 117.579 117.619 117.99 117.208C118.401 116.796 118.958 116.565 119.54 116.564H164.432C165.014 116.565 165.571 116.796 165.982 117.208C166.393 117.619 166.625 118.176 166.625 118.758V125.95C166.625 126.532 166.393 127.089 165.982 127.5C165.571 127.911 165.014 128.143 164.432 128.143Z" fill="#FF9300"/>
<path d="M320.389 359.504L306.638 364.049C304.346 364.806 302.054 365.563 299.763 366.321C297.64 367.019 295.343 367.851 293.071 367.55C291.501 367.342 289.71 366.439 289.221 364.823C288.758 363.294 289.74 361.695 290.928 360.791C294.21 358.294 298.359 360.835 300.684 363.42C303.528 366.582 305.137 370.664 307.805 373.974C310.179 376.942 313.19 379.34 316.614 380.99C323.419 384.203 331.72 383.861 337.79 379.179C345.038 373.588 345.778 363.897 345.816 355.443C345.803 355.061 345.642 354.7 345.368 354.435C345.094 354.17 344.727 354.022 344.345 354.022C343.964 354.022 343.598 354.17 343.323 354.435C343.049 354.7 342.888 355.061 342.875 355.443C342.84 363.105 342.404 372.498 335.418 377.292C328.725 381.885 319.929 380.667 313.768 375.773C310.334 373.047 308.222 369.491 305.968 365.808C303.767 362.214 301.035 358.73 296.894 357.332C295.118 356.687 293.173 356.674 291.389 357.297C289.605 357.92 288.091 359.14 287.103 360.75C286.651 361.51 286.367 362.358 286.269 363.236C286.17 364.115 286.26 365.004 286.532 365.845C286.805 366.686 287.253 367.459 287.847 368.113C288.442 368.768 289.169 369.288 289.98 369.639C294.782 371.927 300.275 369.246 304.899 367.718L321.171 362.34C322.96 361.749 322.193 358.908 320.389 359.504Z" fill="#FF9300"/>
<path d="M279.641 575.691L269.998 578.868L253.156 543.189L267.387 538.501L279.641 575.691Z" fill="#FFC8B6"/>
<path d="M286.519 583.793L285.862 581.803L284.137 576.558L282.96 572.989L279.744 574.048L279.078 573.999L270.244 573.401L269.067 573.322L267.322 573.205L265.518 573.077L260.479 580.401H260.469C258.585 581.015 256.842 581.996 255.341 583.289C253.839 584.581 252.61 586.159 251.723 587.931C251.616 588.147 251.517 588.362 251.419 588.578C251.176 589.106 250.97 589.649 250.802 590.206C250.039 592.608 249.897 595.165 250.39 597.637C250.517 598.25 250.677 598.856 250.87 599.451L250.9 599.549L251.017 599.912L251.723 599.677L257.92 597.637L279.627 590.49L283.931 589.068L285.254 588.627H285.264L287.833 587.784L286.519 583.793Z" fill="#232641"/>
<path d="M188.244 584.078L178.093 584.077L173.263 544.921L188.246 544.922L188.244 584.078Z" fill="#FFC8B6"/>
<path d="M171.998 412.425L167.497 420.209C167.497 420.209 162.552 421.56 164.168 437.679C165.309 449.062 165.68 500.025 168.553 533.134C169.749 546.914 171.378 557.6 173.677 561.054L175.092 562.322L189.864 563.733L190.237 563.603L195.661 525.291C196.635 518.414 196.489 511.424 195.23 504.593L194.249 493.808L207.851 439.201C207.851 439.201 221.701 474.2 230.525 507.535C232.65 515.559 240.718 520.662 243.777 527.548C244.802 529.855 245.809 532.091 246.791 534.236C253.261 548.36 256.504 558.643 258.958 559.498H260.919L272.684 555.576L274.999 549.757L256.997 496.75L243.517 411.163C217.832 397.352 193.739 395.816 171.998 412.425Z" fill="#C1340A"/>
<path d="M245.576 297.103C244.689 295.15 243.646 293.271 242.458 291.485C239.741 287.252 235.966 283.801 231.506 281.475L227.643 280.622L220.722 279.092L217.074 275.004L211.094 268.307H190.504L187.749 275.004L185.436 280.622L184.445 283.014L166.817 291.828C166.807 291.828 166.807 291.828 166.797 291.838C167.033 293.603 167.265 295.358 167.493 297.103C167.993 300.897 168.464 304.646 168.905 308.349C169.131 310.231 169.346 312.104 169.552 313.966C170.209 319.81 170.775 325.552 171.249 331.193C171.67 336.232 172.007 341.2 172.258 346.095C172.872 357.214 172.917 368.356 172.396 379.479C172.258 382.097 174.857 385.078 174.651 387.637C174.308 391.813 171.082 395.519 170.513 399.51C170.16 401.961 170.317 404.569 169.699 406.883C169.528 407.56 169.271 408.212 168.935 408.824C168.935 408.834 168.925 408.834 168.925 408.844C161.866 421.452 167.405 415.432 166.748 418.266L167.062 418.344C167.209 418.383 167.66 418.501 168.386 418.668C172.533 419.658 189.632 403.608 201.113 403.608C208.005 403.608 226.251 414.942 232.359 415.766C237.193 416.413 241.507 417.001 244.076 414.736C244.821 414.076 245.39 413.24 245.733 412.305L245.762 412.216L245.752 412.128L245.507 408.844L245.36 406.883L243.262 378.744C242.09 377.291 241.35 375.539 241.124 373.686C240.899 371.833 241.198 369.955 241.987 368.263L242.419 367.351L240.83 346.095L240.536 342.125L240.428 340.781V340.772L239.664 330.506L241.507 324.898V324.889L245.095 313.966L246.939 308.349L248.095 304.819L248.174 304.584C247.557 302.011 246.686 299.505 245.576 297.103Z" fill="#FF9300"/>
<path d="M263.462 398.49L243.697 347.407L234.517 328.754L252.169 319.002L266.387 344.051L275.917 396.388C277.417 397.413 278.577 398.862 279.247 400.55C279.917 402.238 280.068 404.088 279.678 405.863C279.289 407.637 278.378 409.254 277.063 410.507C275.748 411.76 274.088 412.59 272.297 412.893C270.506 413.195 268.665 412.954 267.011 412.203C265.358 411.451 263.967 410.222 263.017 408.673C262.068 407.125 261.602 405.328 261.682 403.513C261.761 401.699 262.381 399.949 263.462 398.49Z" fill="#FFC8B6"/>
<path d="M263.861 328.114L258.802 324.839L252.988 313.966L249.988 308.348L248.096 304.819L247.292 303.309L238.203 297.103L232.065 292.906L227.065 297.103L224.683 299.103L227.016 308.348L228.428 313.966L231.507 326.153L240.536 342.125L242.782 346.095L244.066 348.38L244.076 348.399L244.252 348.703L267.067 347.752L267.783 347.723L267.822 346.095L267.842 345.507C267.851 345.213 267.851 344.919 267.851 344.625C267.848 338.883 266.481 333.224 263.861 328.114Z" fill="#FF9300"/>
<path d="M91.1805 378.175L131.615 341.226L145.668 325.905L161.159 338.818L142.972 361.154L97.6563 389.019C97.2461 390.789 96.3161 392.395 94.986 393.632C93.6559 394.869 91.9862 395.68 90.1917 395.961C88.3971 396.242 86.5595 395.98 84.9151 395.208C83.2706 394.437 81.8943 393.191 80.963 391.632C80.0318 390.072 79.588 388.27 79.6889 386.456C79.7897 384.643 80.4304 382.901 81.5289 381.454C82.6273 380.007 84.1331 378.922 85.853 378.338C87.5728 377.753 89.4282 377.697 91.1805 378.175Z" fill="#FFC8B6"/>
<path d="M174.65 313.966L174.572 308.348L174.425 297.103L174.366 292.74L174.199 292.622C173.286 292.023 172.251 291.635 171.17 291.485C170.219 291.327 169.248 291.327 168.297 291.485C167.796 291.563 167.301 291.677 166.817 291.828C166.807 291.828 166.807 291.828 166.797 291.838C163.891 292.881 161.324 294.698 159.375 297.093L159.365 297.103C156.425 300.6 153.819 304.365 151.58 308.348C150.473 310.231 149.414 312.133 148.424 313.966C144.678 320.937 141.982 326.977 141.933 327.085L130.736 341.625L130.893 341.889L133.354 346.095L142.374 361.518L143.806 363.969L147.463 362.018C151.726 359.743 155.087 356.085 156.993 351.645L158.297 346.664L158.777 346.095L171.248 331.193L174.817 326.918L174.65 313.966Z" fill="#FF9300"/>
<path d="M217.383 249.12C219.053 238.831 212.065 229.136 201.776 227.466C191.486 225.797 181.792 232.784 180.122 243.074C178.452 253.363 185.44 263.058 195.729 264.727C206.018 266.397 215.713 259.409 217.383 249.12Z" fill="#FFC8B6"/>
<path d="M180.507 233.724C179.668 230.788 177.991 228.271 178.83 228.271C179.669 228.271 180.088 226.174 180.088 226.174C180.088 226.174 180.927 225.755 181.346 226.174C181.766 226.594 182.185 223.238 182.185 223.238C182.185 223.238 182.605 221.98 183.024 222.819C183.443 223.658 183.443 223.238 183.863 221.98C184.282 220.722 186.379 219.883 186.379 219.883C186.379 219.883 194.349 220.302 195.607 218.624C196.865 216.947 211.126 218.205 214.062 220.302C216.998 222.399 228.565 226.149 221.702 237.914C225.624 244.777 219.769 257.018 218.256 258.47C215.864 260.767 214.208 261.595 202.888 263.847C200.673 264.288 195.23 245.757 195.23 245.757C195.23 245.757 181.346 236.66 180.507 233.724Z" fill="#232641"/>
<path d="M188.857 582.548L188.249 582.303L177.327 577.852L175.651 577.175L168.572 582.548H168.562C164.563 582.553 160.728 584.144 157.901 586.973C155.074 589.802 153.485 593.638 153.483 597.637V598.127H192.24V582.548H188.857Z" fill="#232641"/>
<path d="M96.9901 0C95.4475 27.42 85.3683 53.671 68.1637 75.0775C50.9591 96.4839 27.4905 111.974 1.04422 119.378C1.01481 120.065 0.98539 120.751 0.975586 121.437C27.9697 114.011 51.9495 98.294 69.5293 76.5045C87.109 54.7149 97.4006 27.954 98.951 0H96.9901Z" fill="#D7D8FB"/>
<path d="M66.9591 0C62.4028 17.3114 54.3709 33.5143 43.3525 47.6224C32.3341 61.7304 18.5596 73.4484 2.86771 82.0628C2.80889 82.8374 2.76969 83.6021 2.73047 84.3767C18.993 75.6377 33.2736 63.6314 44.6757 49.1114C56.0778 34.5913 64.3553 17.871 68.9886 0H66.9591Z" fill="#D7D8FB"/>
<path d="M302.775 598.804C302.775 598.958 302.746 599.11 302.687 599.253C302.629 599.395 302.543 599.525 302.435 599.634C302.327 599.743 302.198 599.83 302.056 599.889C301.914 599.949 301.762 599.98 301.608 599.98H102.284C101.974 599.98 101.676 599.857 101.456 599.637C101.236 599.418 101.113 599.12 101.113 598.809C101.113 598.498 101.236 598.2 101.456 597.98C101.676 597.761 101.974 597.637 102.284 597.637H301.608C301.917 597.638 302.213 597.761 302.432 597.98C302.651 598.198 302.774 598.495 302.775 598.804Z" fill="#7A7B9B"/>
</g>
<defs>
<clipPath id="clip0_715_1027">
<rect width="398.009" height="600" fill="white" transform="translate(-0.00439453)"/>
</clipPath>
</defs>
</svg>
