<svg width="670" height="403" viewBox="0 0 670 403" fill="none" xmlns="http://www.w3.org/2000/svg">
<path d="M350.801 8.84814C371.235 -2.94938 396.41 -2.94938 416.844 8.84813L636.777 135.826C657.211 147.624 669.799 169.427 669.799 193.022V446.978C669.799 470.573 657.211 492.376 636.777 504.174L416.844 631.152C396.41 642.949 371.235 642.949 350.801 631.152L130.868 504.174C110.434 492.376 97.8462 470.573 97.8462 446.978V193.022C97.8462 169.427 110.434 147.624 130.868 135.826L350.801 8.84814Z" fill="url(#paint0_linear_715_1283)"/>
<path d="M189.716 167.062C205.041 158.214 223.923 158.214 239.248 167.062L404.198 262.295C419.524 271.144 428.964 287.496 428.964 305.192V495.659C428.964 513.356 419.524 529.708 404.198 538.556L239.248 633.789C223.923 642.638 205.041 642.638 189.716 633.789L24.7663 538.556C9.44085 529.708 0 513.356 0 495.659V305.192C0 287.496 9.44085 271.144 24.7663 262.295L189.716 167.062Z" fill="url(#paint1_linear_715_1283)"/>
<path d="M517.704 35.3181C525.367 30.894 534.808 30.894 542.47 35.3181L624.945 82.9349C632.608 87.359 637.328 95.535 637.328 104.383V199.617C637.328 208.465 632.608 216.641 624.945 221.065L542.47 268.682C534.808 273.106 525.367 273.106 517.704 268.682L435.229 221.065C427.567 216.641 422.846 208.465 422.846 199.617V104.383C422.846 95.535 427.567 87.359 435.229 82.9349L517.704 35.3181Z" fill="url(#paint2_linear_715_1283)"/>
<defs>
<linearGradient id="paint0_linear_715_1283" x1="383.823" y1="0" x2="383.823" y2="640" gradientUnits="userSpaceOnUse">
<stop stop-color="#000020"/>
<stop offset="1" stop-color="#535573"/>
</linearGradient>
<linearGradient id="paint1_linear_715_1283" x1="214.482" y1="160.426" x2="214.482" y2="640.426" gradientUnits="userSpaceOnUse">
<stop stop-color="#000020"/>
<stop offset="1" stop-color="#535573"/>
</linearGradient>
<linearGradient id="paint2_linear_715_1283" x1="530.087" y1="32" x2="530.087" y2="272" gradientUnits="userSpaceOnUse">
<stop stop-color="#000020"/>
<stop offset="1" stop-color="#535573"/>
</linearGradient>
</defs>
</svg>
