<svg width="24" height="24" viewBox="0 0 24 24" fill="none" xmlns="http://www.w3.org/2000/svg">
<path d="M12.7845 17.5809C12.8894 17.6854 12.9726 17.8096 13.0294 17.9464C13.0862 18.0831 13.1154 18.2297 13.1154 18.3778C13.1154 18.5259 13.0862 18.6725 13.0294 18.8092C12.9726 18.946 12.8894 19.0701 12.7845 19.1747L12.2276 19.7315C11.1724 20.7868 9.74119 21.3796 8.24887 21.3796C6.75655 21.3796 5.32535 20.7868 4.27012 19.7315C3.21489 18.6763 2.62207 17.2451 2.62207 15.7528C2.62207 14.2605 3.21489 12.8293 4.27012 11.774L6.53137 9.51373C7.54526 8.49733 8.90941 7.90707 10.3444 7.86384C11.7794 7.82061 13.1766 8.3277 14.2498 9.28123C14.3606 9.37972 14.4509 9.49907 14.5156 9.63247C14.5803 9.76586 14.6181 9.91069 14.6268 10.0587C14.6355 10.2067 14.6149 10.3549 14.5663 10.495C14.5178 10.6351 14.4421 10.7642 14.3436 10.875C14.2451 10.9858 14.1257 11.0761 13.9923 11.1408C13.8589 11.2055 13.7141 11.2432 13.5661 11.2519C13.4181 11.2606 13.2698 11.2401 13.1298 11.1915C12.9897 11.1429 12.8606 11.0672 12.7498 10.9687C12.1062 10.3972 11.2686 10.0931 10.4082 10.1187C9.54787 10.1443 8.7298 10.4977 8.12137 11.1065L5.862 13.364C5.22896 13.9971 4.87332 14.8557 4.87332 15.7509C4.87332 16.6462 5.22896 17.5048 5.862 18.1378C6.49504 18.7708 7.35362 19.1265 8.24887 19.1265C9.14412 19.1265 10.0027 18.7708 10.6357 18.1378L11.1926 17.5809C11.2971 17.4763 11.4212 17.3933 11.5578 17.3367C11.6943 17.2801 11.8407 17.251 11.9886 17.251C12.1364 17.251 12.2828 17.2801 12.4194 17.3367C12.5559 17.3933 12.68 17.4763 12.7845 17.5809ZM19.7295 4.26842C18.6734 3.21481 17.2425 2.62311 15.7507 2.62311C14.259 2.62311 12.8281 3.21481 11.772 4.26842L11.2151 4.82529C11.0038 5.03664 10.885 5.32328 10.885 5.62217C10.885 5.92105 11.0038 6.2077 11.2151 6.41904C11.4265 6.63039 11.7131 6.74912 12.012 6.74912C12.3109 6.74912 12.5975 6.63039 12.8089 6.41904L13.3657 5.86217C13.9988 5.22913 14.8574 4.87349 15.7526 4.87349C16.6479 4.87349 17.5065 5.22913 18.1395 5.86217C18.7725 6.49521 19.1282 7.35379 19.1282 8.24904C19.1282 9.14429 18.7725 10.0029 18.1395 10.6359L15.8792 12.8972C15.2702 13.5058 14.4517 13.8586 13.5911 13.8835C12.7305 13.9085 11.893 13.6036 11.2498 13.0312C11.139 12.9327 11.0099 12.857 10.8698 12.8084C10.7298 12.7599 10.5815 12.7393 10.4335 12.748C10.2855 12.7567 10.1407 12.7945 10.0073 12.8592C9.8739 12.9239 9.75455 13.0142 9.65606 13.125C9.55757 13.2358 9.48187 13.3649 9.43327 13.505C9.38468 13.645 9.36415 13.7933 9.37286 13.9413C9.38156 14.0893 9.41933 14.2341 9.48401 14.3675C9.54869 14.5009 9.63901 14.6202 9.74981 14.7187C10.8223 15.672 12.2186 16.1794 13.6529 16.1371C15.0872 16.0947 16.4511 15.5058 17.4654 14.4909L19.7267 12.2306C20.7815 11.1748 21.3743 9.7435 21.3748 8.25103C21.3753 6.75856 20.7836 5.32687 19.7295 4.27029V4.26842Z" fill="black"/>
</svg>
