<svg width="24" height="24" viewBox="0 0 24 24" fill="none" xmlns="http://www.w3.org/2000/svg">
<path d="M17.5 19H22M22 19L19.5 16.5M22 19L19.5 21.5M12 2L9.5 4.5L12 7" stroke="black" stroke-width="2" stroke-linecap="round" stroke-linejoin="round"/>
<path d="M10.5 4.5C12.4891 4.5 14.3968 5.29018 15.8033 6.6967C17.2098 8.10322 18 10.0109 18 12C18 13.9891 17.2098 15.8968 15.8033 17.3033C14.3968 18.7098 12.4891 19.5 10.5 19.5H2" stroke="black" stroke-width="2" stroke-linecap="round" stroke-linejoin="round"/>
<path d="M6.756 5.5C5.61383 6.15768 4.66522 7.10484 4.0058 8.246C3.34638 9.38717 2.99946 10.682 3 12C3 13.688 3.558 15.246 4.5 16.5" stroke="black" stroke-width="2" stroke-linecap="round" stroke-linejoin="round"/>
</svg>
