<svg width="24" height="24" viewBox="0 0 24 24" fill="none" xmlns="http://www.w3.org/2000/svg">
<g clip-path="url(#clip0_725_339)">
<path d="M4.105 4.10498C4.105 4.10498 9.158 1.57998 11.684 0.315982C12.1438 0.0893435 12.6528 -0.0189302 13.165 0.000981621C13.931 0.0479816 14.842 0.788982 14.842 0.788982L24 9.94798V19.737H19.737V24H9.789L0.789 15C0.303 14.5 0 13.795 0 13.105C0 12.786 0.18 12.287 0.316 12L4.105 4.10498ZM4.784 4.78398V16.571C4.786 17.114 4.805 17.595 5.282 18.079L10.204 23H18.737V18.737L4.784 4.78398ZM16.839 4.10598C15.94 3.20998 15.03 2.32598 14.099 1.46298C13.797 1.19598 13.532 0.994982 13.029 1.00098C12.659 1.01498 12.159 1.19598 12.159 1.19598L6.341 4.10498L16.839 4.10598Z" fill="black"/>
</g>
<defs>
<clipPath id="clip0_725_339">
<rect width="24" height="24" fill="white"/>
</clipPath>
</defs>
</svg>
