<svg width="140" height="48" viewBox="0 0 140 48" fill="none" xmlns="http://www.w3.org/2000/svg">
<path fill-rule="evenodd" clip-rule="evenodd" d="M24.2593 6.58853C24.3439 6.55371 24.435 6.53778 24.5264 6.54184L61.3133 8.17815C61.4928 8.18613 61.6603 8.2706 61.7734 8.41019C61.8865 8.54978 61.9344 8.73113 61.9051 8.90839L61.618 10.6408L65.0494 12.9283C65.2901 13.0889 65.3901 13.3931 65.2915 13.6652L62.8348 20.4394L64.6901 30.2952C64.7285 30.4991 64.6637 30.7089 64.5169 30.8556L52.5818 42.7907C52.4865 42.886 52.3631 42.9482 52.2297 42.9679L18.3089 47.9932C18.2274 48.0053 18.1444 48.0012 18.0645 47.9813L8.01385 45.4686C7.83787 45.4246 7.6895 45.3067 7.60691 45.1452C7.52433 44.9836 7.5156 44.7943 7.58297 44.6259L10.0956 38.3443C10.155 38.1957 10.2689 38.0755 10.4139 38.008L31.4327 28.2318L10.6688 27.8987C10.5545 27.8969 10.4429 27.8639 10.3459 27.8033L0.295321 21.5217C0.0206929 21.35 -0.0784316 20.9977 0.0664006 20.7081L2.57905 15.6827C2.64688 15.5471 2.76149 15.4406 2.90173 15.3828L24.2593 6.58853ZM63.5949 14.6582L11.1696 39.0421L9.01671 44.4243L18.2482 46.7322L51.8403 41.7556L63.3941 30.2017L61.5683 20.503C61.5475 20.3925 61.5568 20.2784 61.5951 20.1726L63.5949 14.6582ZM63.4217 13.3531L34.0381 27.0171L10.8636 26.6453L1.44553 20.759L3.59756 16.455L24.6092 7.8031L60.5499 9.40176L60.3122 10.8357C60.2719 11.0793 60.378 11.324 60.5835 11.461L63.4217 13.3531Z" fill="url(#paint0_linear_715_579)"/>
<path fill-rule="evenodd" clip-rule="evenodd" d="M32.8329 10.0626L37.2419 10.4635L41.6794 11.8081L48.2735 15.0092L51.5825 11.7651L65.5643 13.1918L57.0649 21.8283L60.0676 24.5807V28.1973H59.2733V24.9301L56.4272 22.3212L52.1612 24.4745L52.938 29.8903L47.6788 37.0375L47.0391 36.5667L52.1056 29.6814L51.4129 24.8522L42.9062 29.1461L39.704 37.1515L31.3197 38.7485L29.7598 41.2183L26.7394 42.5913L26.4107 41.8682L29.215 40.5935L30.4388 38.6559L23.9645 37.2172L15.8733 40.6103L15.5662 39.8778L23.8903 36.387L31.0822 37.9852L39.1281 36.4527L42.0066 29.2563H38.4822L34.6133 31.9646L34.1578 31.3139L38.2318 28.462H42.4986L56.256 21.5179L63.8375 13.814L51.8725 12.5931L48.6887 15.7145L47.8011 17.8995L45.1461 19.1571L44.8061 18.4393L47.1816 17.314L47.8439 15.6836L41.6181 12.6613L36.0328 18.3736L33.9777 22.2098L29.8047 22.7662L29.6997 21.9788L33.4696 21.4762L35.0461 18.5334H28.9107L17.0586 23.8602L7.90457 20.4948L8.17865 19.7493L17.0285 23.0029L28.0297 18.0585L24.6057 15.6285L20.244 15.8851L20.1974 15.0922L24.8377 14.8192L28.9521 17.7391H35.5422L40.7927 12.3694L37.0892 11.2471L32.761 10.8537L32.8329 10.0626Z" fill="url(#paint1_linear_715_579)"/>
<path d="M17.3083 40.1116C17.3083 40.8428 16.7156 41.4354 15.9845 41.4354C15.2534 41.4354 14.6607 40.8428 14.6607 40.1116C14.6607 39.3805 15.2534 38.7878 15.9845 38.7878C16.7156 38.7878 17.3083 39.3805 17.3083 40.1116Z" fill="url(#paint2_linear_715_579)"/>
<path d="M27.8988 42.2297C27.8988 42.9609 27.3062 43.5535 26.575 43.5535C25.8439 43.5535 25.2512 42.9609 25.2512 42.2297C25.2512 41.4986 25.8439 40.9059 26.575 40.9059C27.3062 40.9059 27.8988 41.4986 27.8988 42.2297Z" fill="url(#paint3_linear_715_579)"/>
<path d="M48.5504 36.9345C48.5504 37.6656 47.9577 38.2583 47.2266 38.2583C46.4954 38.2583 45.9027 37.6656 45.9027 36.9345C45.9027 36.2033 46.4954 35.6107 47.2266 35.6107C47.9577 35.6107 48.5504 36.2033 48.5504 36.9345Z" fill="url(#paint4_linear_715_579)"/>
<path d="M35.3122 31.6392C35.3122 32.3703 34.7195 32.963 33.9884 32.963C33.2573 32.963 32.6646 32.3703 32.6646 31.6392C32.6646 30.9081 33.2573 30.3154 33.9884 30.3154C34.7195 30.3154 35.3122 30.9081 35.3122 31.6392Z" fill="url(#paint5_linear_715_579)"/>
<path d="M31.076 22.3725C31.076 23.1036 30.4833 23.6963 29.7522 23.6963C29.0211 23.6963 28.4284 23.1036 28.4284 22.3725C28.4284 21.6414 29.0211 21.0487 29.7522 21.0487C30.4833 21.0487 31.076 21.6414 31.076 22.3725Z" fill="url(#paint6_linear_715_579)"/>
<path d="M21.8093 15.2239C21.8093 15.955 21.2166 16.5477 20.4855 16.5477C19.7544 16.5477 19.1617 15.955 19.1617 15.2239C19.1617 14.4928 19.7544 13.9001 20.4855 13.9001C21.2166 13.9001 21.8093 14.4928 21.8093 15.2239Z" fill="url(#paint7_linear_715_579)"/>
<path d="M8.57114 19.7249C8.57114 20.456 7.97845 21.0487 7.24733 21.0487C6.5162 21.0487 5.92351 20.456 5.92351 19.7249C5.92351 18.9937 6.5162 18.4011 7.24733 18.4011C7.97845 18.4011 8.57114 18.9937 8.57114 19.7249Z" fill="url(#paint8_linear_715_579)"/>
<path d="M33.7236 10.4582C33.7236 11.1893 33.1309 11.782 32.3998 11.782C31.6687 11.782 31.076 11.1893 31.076 10.4582C31.076 9.72703 31.6687 9.13434 32.3998 9.13434C33.1309 9.13434 33.7236 9.72703 33.7236 10.4582Z" fill="url(#paint9_linear_715_579)"/>
<path d="M46.4323 18.9306C46.4323 19.6617 45.8396 20.2544 45.1084 20.2544C44.3773 20.2544 43.7846 19.6617 43.7846 18.9306C43.7846 18.1995 44.3773 17.6068 45.1084 17.6068C45.8396 17.6068 46.4323 18.1995 46.4323 18.9306Z" fill="url(#paint10_linear_715_579)"/>
<path d="M60.9942 28.1973C60.9942 28.9284 60.4015 29.5211 59.6704 29.5211C58.9393 29.5211 58.3466 28.9284 58.3466 28.1973C58.3466 27.4662 58.9393 26.8735 59.6704 26.8735C60.4015 26.8735 60.9942 27.4662 60.9942 28.1973Z" fill="url(#paint11_linear_715_579)"/>
<path fill-rule="evenodd" clip-rule="evenodd" d="M115.733 6.58853C115.649 6.55371 115.557 6.53778 115.466 6.54184L78.6791 8.17815C78.4996 8.18613 78.3321 8.2706 78.219 8.41019C78.1059 8.54978 78.0579 8.73113 78.0873 8.90839L78.3744 10.6408L74.943 12.9283C74.7022 13.0889 74.6023 13.3931 74.7009 13.6652L77.1576 20.4394L75.3023 30.2952C75.2639 30.4991 75.3287 30.7089 75.4755 30.8556L87.4106 42.7907C87.5059 42.886 87.6293 42.9482 87.7627 42.9679L121.684 47.9932C121.765 48.0053 121.848 48.0012 121.928 47.9813L131.979 45.4686C132.155 45.4246 132.303 45.3067 132.385 45.1452C132.468 44.9836 132.477 44.7943 132.409 44.6259L129.897 38.3443C129.837 38.1957 129.724 38.0755 129.578 38.008L108.56 28.2318L129.324 27.8987C129.438 27.8969 129.55 27.8639 129.646 27.8033L139.697 21.5217C139.972 21.35 140.071 20.9977 139.926 20.7081L137.413 15.6827C137.346 15.5471 137.231 15.4406 137.091 15.3828L115.733 6.58853ZM76.3975 14.6582L128.823 39.0421L130.976 44.4243L121.744 46.7322L88.1521 41.7556L76.5983 30.2017L78.424 20.503C78.4449 20.3925 78.4356 20.2784 78.3973 20.1726L76.3975 14.6582ZM76.5707 13.3531L105.954 27.0171L129.129 26.6453L138.547 20.759L136.395 16.455L115.383 7.8031L79.4425 9.40176L79.6802 10.8357C79.7205 11.0793 79.6144 11.324 79.4089 11.461L76.5707 13.3531Z" fill="url(#paint12_linear_715_579)"/>
<path fill-rule="evenodd" clip-rule="evenodd" d="M107.159 10.0626L102.75 10.4635L98.313 11.8081L91.7188 15.0092L88.4099 11.7651L74.4281 13.1918L82.9275 21.8283L79.9248 24.5807V28.1973H80.7191V24.9301L83.5652 22.3212L87.8312 24.4745L87.0544 29.8903L92.3136 37.0375L92.9533 36.5667L87.8868 29.6814L88.5795 24.8522L97.0862 29.1461L100.288 37.1515L108.673 38.7485L110.233 41.2183L113.253 42.5913L113.582 41.8682L110.777 40.5935L109.554 38.6559L116.028 37.2172L124.119 40.6103L124.426 39.8778L116.102 36.387L108.91 37.9852L100.864 36.4527L97.9858 29.2563H101.51L105.379 31.9646L105.835 31.3139L101.761 28.462H97.4937L83.7364 21.5179L76.1549 13.814L88.1199 12.5931L91.3037 15.7145L92.1913 17.8995L94.8463 19.1571L95.1863 18.4393L92.8108 17.314L92.1485 15.6836L98.3743 12.6613L103.96 18.3736L106.015 22.2098L110.188 22.7662L110.293 21.9788L106.523 21.4762L104.946 18.5334H111.082L122.934 23.8602L132.088 20.4948L131.814 19.7493L122.964 23.0029L111.963 18.0585L115.387 15.6285L119.748 15.8851L119.795 15.0922L115.155 14.8192L111.04 17.7391H104.45L99.1997 12.3694L102.903 11.2471L107.231 10.8537L107.159 10.0626Z" fill="url(#paint13_linear_715_579)"/>
<path d="M122.684 40.1116C122.684 40.8428 123.277 41.4354 124.008 41.4354C124.739 41.4354 125.332 40.8428 125.332 40.1116C125.332 39.3805 124.739 38.7878 124.008 38.7878C123.277 38.7878 122.684 39.3805 122.684 40.1116Z" fill="url(#paint14_linear_715_579)"/>
<path d="M112.094 42.2297C112.094 42.9609 112.686 43.5535 113.417 43.5535C114.148 43.5535 114.741 42.9609 114.741 42.2297C114.741 41.4986 114.148 40.9059 113.417 40.9059C112.686 40.9059 112.094 41.4986 112.094 42.2297Z" fill="url(#paint15_linear_715_579)"/>
<path d="M91.442 36.9345C91.442 37.6656 92.0347 38.2583 92.7658 38.2583C93.497 38.2583 94.0897 37.6656 94.0897 36.9345C94.0897 36.2033 93.497 35.6107 92.7658 35.6107C92.0347 35.6107 91.442 36.2033 91.442 36.9345Z" fill="url(#paint16_linear_715_579)"/>
<path d="M104.68 31.6392C104.68 32.3703 105.273 32.963 106.004 32.963C106.735 32.963 107.328 32.3703 107.328 31.6392C107.328 30.9081 106.735 30.3154 106.004 30.3154C105.273 30.3154 104.68 30.9081 104.68 31.6392Z" fill="url(#paint17_linear_715_579)"/>
<path d="M108.916 22.3725C108.916 23.1036 109.509 23.6963 110.24 23.6963C110.971 23.6963 111.564 23.1036 111.564 22.3725C111.564 21.6414 110.971 21.0487 110.24 21.0487C109.509 21.0487 108.916 21.6414 108.916 22.3725Z" fill="url(#paint18_linear_715_579)"/>
<path d="M118.183 15.2239C118.183 15.955 118.776 16.5477 119.507 16.5477C120.238 16.5477 120.831 15.955 120.831 15.2239C120.831 14.4928 120.238 13.9001 119.507 13.9001C118.776 13.9001 118.183 14.4928 118.183 15.2239Z" fill="url(#paint19_linear_715_579)"/>
<path d="M131.421 19.7249C131.421 20.456 132.014 21.0487 132.745 21.0487C133.476 21.0487 134.069 20.456 134.069 19.7249C134.069 18.9937 133.476 18.4011 132.745 18.4011C132.014 18.4011 131.421 18.9937 131.421 19.7249Z" fill="url(#paint20_linear_715_579)"/>
<path d="M106.269 10.4582C106.269 11.1893 106.861 11.782 107.593 11.782C108.324 11.782 108.916 11.1893 108.916 10.4582C108.916 9.72703 108.324 9.13434 107.593 9.13434C106.861 9.13434 106.269 9.72703 106.269 10.4582Z" fill="url(#paint21_linear_715_579)"/>
<path d="M93.5601 18.9306C93.5601 19.6617 94.1528 20.2544 94.8839 20.2544C95.6151 20.2544 96.2078 19.6617 96.2078 18.9306C96.2078 18.1995 95.6151 17.6068 94.8839 17.6068C94.1528 17.6068 93.5601 18.1995 93.5601 18.9306Z" fill="url(#paint22_linear_715_579)"/>
<path d="M78.9982 28.1973C78.9982 28.9284 79.5909 29.5211 80.322 29.5211C81.0531 29.5211 81.6458 28.9284 81.6458 28.1973C81.6458 27.4662 81.0531 26.8735 80.322 26.8735C79.5909 26.8735 78.9982 27.4662 78.9982 28.1973Z" fill="url(#paint23_linear_715_579)"/>
<path d="M68.4076 32.4776H71.5848L73.9676 20.5633L71.7613 13.8559H68.2311L66.0247 20.5633L68.4076 32.4776Z" fill="url(#paint24_linear_715_579)"/>
<path fill-rule="evenodd" clip-rule="evenodd" d="M70.1567 0.0197629C70.0513 -0.00658764 69.941 -0.00658764 69.8356 0.0197629L64.5404 1.34358C64.2847 1.40749 64.0913 1.61697 64.048 1.87691L62.7242 9.8198C62.6814 10.0767 62.7932 10.3349 63.01 10.4794L66.5607 12.8466L64.073 20.3098C64.0366 20.4191 64.0293 20.536 64.0519 20.649L66.6995 33.8871C66.752 34.1496 66.9555 34.3497 67.2087 34.4043L68.5325 34.4192H71.4599L72.7836 34.4043C73.0368 34.3497 73.2404 34.1496 73.2929 33.8871L75.9405 20.649C75.9631 20.536 75.9558 20.4191 75.9194 20.3098L73.4316 12.8466L76.9824 10.4794C77.1991 10.3349 77.311 10.0767 77.2682 9.8198L75.9444 1.87691C75.901 1.61697 75.7076 1.40749 75.452 1.34358L70.1567 0.0197629ZM67.8256 13.2382L65.3845 20.5617L67.8912 33.0954H72.1012L74.6079 20.5617L72.1667 13.2382H67.8256ZM72.4434 11.9143L75.892 9.61528L74.7099 2.52261L69.9962 1.34419L65.2825 2.52261L64.1004 9.61528L67.549 11.9143H72.4434Z" fill="url(#paint25_linear_715_579)"/>
<path fill-rule="evenodd" clip-rule="evenodd" d="M75.892 9.61528L72.4434 11.9143H67.549L64.1004 9.61528L65.2825 2.52261L69.9962 1.34419L74.7099 2.52261L75.892 9.61528ZM71.5848 32.4776H68.4076L66.0247 20.5633L68.2311 13.8559H71.7613L73.9676 20.5633L71.5848 32.4776Z" fill="url(#paint26_linear_715_579)"/>
<defs>
<linearGradient id="paint0_linear_715_579" x1="70.0845" y1="48.0451" x2="70.0845" y2="-3.17844e-07" gradientUnits="userSpaceOnUse">
<stop stop-color="#FFB800"/>
<stop offset="1" stop-color="#F6511D"/>
</linearGradient>
<linearGradient id="paint1_linear_715_579" x1="70.0845" y1="48.0451" x2="70.0845" y2="-3.17844e-07" gradientUnits="userSpaceOnUse">
<stop stop-color="#FFB800"/>
<stop offset="1" stop-color="#F6511D"/>
</linearGradient>
<linearGradient id="paint2_linear_715_579" x1="70.0845" y1="48.0451" x2="70.0845" y2="-3.17844e-07" gradientUnits="userSpaceOnUse">
<stop stop-color="#FFB800"/>
<stop offset="1" stop-color="#F6511D"/>
</linearGradient>
<linearGradient id="paint3_linear_715_579" x1="70.0845" y1="48.0451" x2="70.0845" y2="-3.17844e-07" gradientUnits="userSpaceOnUse">
<stop stop-color="#FFB800"/>
<stop offset="1" stop-color="#F6511D"/>
</linearGradient>
<linearGradient id="paint4_linear_715_579" x1="70.0845" y1="48.0451" x2="70.0845" y2="-3.17844e-07" gradientUnits="userSpaceOnUse">
<stop stop-color="#FFB800"/>
<stop offset="1" stop-color="#F6511D"/>
</linearGradient>
<linearGradient id="paint5_linear_715_579" x1="70.0845" y1="48.0451" x2="70.0845" y2="-3.17844e-07" gradientUnits="userSpaceOnUse">
<stop stop-color="#FFB800"/>
<stop offset="1" stop-color="#F6511D"/>
</linearGradient>
<linearGradient id="paint6_linear_715_579" x1="70.0845" y1="48.0451" x2="70.0845" y2="-3.17844e-07" gradientUnits="userSpaceOnUse">
<stop stop-color="#FFB800"/>
<stop offset="1" stop-color="#F6511D"/>
</linearGradient>
<linearGradient id="paint7_linear_715_579" x1="70.0845" y1="48.0451" x2="70.0845" y2="-3.17844e-07" gradientUnits="userSpaceOnUse">
<stop stop-color="#FFB800"/>
<stop offset="1" stop-color="#F6511D"/>
</linearGradient>
<linearGradient id="paint8_linear_715_579" x1="70.0845" y1="48.0451" x2="70.0845" y2="-3.17844e-07" gradientUnits="userSpaceOnUse">
<stop stop-color="#FFB800"/>
<stop offset="1" stop-color="#F6511D"/>
</linearGradient>
<linearGradient id="paint9_linear_715_579" x1="70.0845" y1="48.0451" x2="70.0845" y2="-3.17844e-07" gradientUnits="userSpaceOnUse">
<stop stop-color="#FFB800"/>
<stop offset="1" stop-color="#F6511D"/>
</linearGradient>
<linearGradient id="paint10_linear_715_579" x1="70.0845" y1="48.0451" x2="70.0845" y2="-3.17844e-07" gradientUnits="userSpaceOnUse">
<stop stop-color="#FFB800"/>
<stop offset="1" stop-color="#F6511D"/>
</linearGradient>
<linearGradient id="paint11_linear_715_579" x1="70.0845" y1="48.0451" x2="70.0845" y2="-3.17844e-07" gradientUnits="userSpaceOnUse">
<stop stop-color="#FFB800"/>
<stop offset="1" stop-color="#F6511D"/>
</linearGradient>
<linearGradient id="paint12_linear_715_579" x1="70.0845" y1="48.0451" x2="70.0845" y2="-3.17844e-07" gradientUnits="userSpaceOnUse">
<stop stop-color="#FFB800"/>
<stop offset="1" stop-color="#F6511D"/>
</linearGradient>
<linearGradient id="paint13_linear_715_579" x1="70.0845" y1="48.0451" x2="70.0845" y2="-3.17844e-07" gradientUnits="userSpaceOnUse">
<stop stop-color="#FFB800"/>
<stop offset="1" stop-color="#F6511D"/>
</linearGradient>
<linearGradient id="paint14_linear_715_579" x1="70.0845" y1="48.0451" x2="70.0845" y2="-3.17844e-07" gradientUnits="userSpaceOnUse">
<stop stop-color="#FFB800"/>
<stop offset="1" stop-color="#F6511D"/>
</linearGradient>
<linearGradient id="paint15_linear_715_579" x1="70.0845" y1="48.0451" x2="70.0845" y2="-3.17844e-07" gradientUnits="userSpaceOnUse">
<stop stop-color="#FFB800"/>
<stop offset="1" stop-color="#F6511D"/>
</linearGradient>
<linearGradient id="paint16_linear_715_579" x1="70.0845" y1="48.0451" x2="70.0845" y2="-3.17844e-07" gradientUnits="userSpaceOnUse">
<stop stop-color="#FFB800"/>
<stop offset="1" stop-color="#F6511D"/>
</linearGradient>
<linearGradient id="paint17_linear_715_579" x1="70.0845" y1="48.0451" x2="70.0845" y2="-3.17844e-07" gradientUnits="userSpaceOnUse">
<stop stop-color="#FFB800"/>
<stop offset="1" stop-color="#F6511D"/>
</linearGradient>
<linearGradient id="paint18_linear_715_579" x1="70.0845" y1="48.0451" x2="70.0845" y2="-3.17844e-07" gradientUnits="userSpaceOnUse">
<stop stop-color="#FFB800"/>
<stop offset="1" stop-color="#F6511D"/>
</linearGradient>
<linearGradient id="paint19_linear_715_579" x1="70.0845" y1="48.0451" x2="70.0845" y2="-3.17844e-07" gradientUnits="userSpaceOnUse">
<stop stop-color="#FFB800"/>
<stop offset="1" stop-color="#F6511D"/>
</linearGradient>
<linearGradient id="paint20_linear_715_579" x1="70.0845" y1="48.0451" x2="70.0845" y2="-3.17844e-07" gradientUnits="userSpaceOnUse">
<stop stop-color="#FFB800"/>
<stop offset="1" stop-color="#F6511D"/>
</linearGradient>
<linearGradient id="paint21_linear_715_579" x1="70.0845" y1="48.0451" x2="70.0845" y2="-3.17844e-07" gradientUnits="userSpaceOnUse">
<stop stop-color="#FFB800"/>
<stop offset="1" stop-color="#F6511D"/>
</linearGradient>
<linearGradient id="paint22_linear_715_579" x1="70.0845" y1="48.0451" x2="70.0845" y2="-3.17844e-07" gradientUnits="userSpaceOnUse">
<stop stop-color="#FFB800"/>
<stop offset="1" stop-color="#F6511D"/>
</linearGradient>
<linearGradient id="paint23_linear_715_579" x1="70.0845" y1="48.0451" x2="70.0845" y2="-3.17844e-07" gradientUnits="userSpaceOnUse">
<stop stop-color="#FFB800"/>
<stop offset="1" stop-color="#F6511D"/>
</linearGradient>
<linearGradient id="paint24_linear_715_579" x1="70.0845" y1="48.0451" x2="70.0845" y2="-3.17844e-07" gradientUnits="userSpaceOnUse">
<stop stop-color="#FFB800"/>
<stop offset="1" stop-color="#F6511D"/>
</linearGradient>
<linearGradient id="paint25_linear_715_579" x1="70.0845" y1="48.0451" x2="70.0845" y2="-3.17844e-07" gradientUnits="userSpaceOnUse">
<stop stop-color="#FFB800"/>
<stop offset="1" stop-color="#F6511D"/>
</linearGradient>
<linearGradient id="paint26_linear_715_579" x1="70.0845" y1="48.0451" x2="70.0845" y2="-3.17844e-07" gradientUnits="userSpaceOnUse">
<stop stop-color="#FFB800"/>
<stop offset="1" stop-color="#F6511D"/>
</linearGradient>
</defs>
</svg>
